SplineFontDB: 3.2
FontName: badfont
FullName: badfont
FamilyName: badfont
Weight: Regular
Copyright: Copyright (c) 2020, Chua Hou
UComments: "2020-4-27: Created with FontForge (http://fontforge.org)"
Version: 1.0.0
ItalicAngle: 0
UnderlinePosition: -150
UnderlineWidth: 75
Ascent: 800
Descent: 700
InvalidEm: 0
LayerCount: 2
Layer: 0 0 "Back" 1
Layer: 1 0 "Fore" 0
XUID: [1021 809 -1196267529 16169608]
FSType: 0
OS2Version: 0
OS2_WeightWidthSlopeOnly: 0
OS2_UseTypoMetrics: 1
CreationTime: 1587955320
ModificationTime: 1588426310
PfmFamily: 49
TTFWeight: 400
TTFWidth: 5
LineGap: 135
VLineGap: 0
OS2TypoAscent: 0
OS2TypoAOffset: 1
OS2TypoDescent: 0
OS2TypoDOffset: 1
OS2TypoLinegap: 135
OS2WinAscent: 0
OS2WinAOffset: 1
OS2WinDescent: 0
OS2WinDOffset: 1
HheadAscent: 0
HheadAOffset: 1
HheadDescent: 0
HheadDOffset: 1
OS2Vendor: 'PfEd'
MarkAttachClasses: 1
DEI: 91125
LangName: 1033
Encoding: Custom
UnicodeInterp: none
NameList: AGL For New Fonts
DisplaySize: -48
AntiAlias: 1
FitToEm: 0
WidthSeparation: 150
WinInfo: 0 18 14
BeginPrivate: 0
EndPrivate
TeXData: 1 0 0 419430 209715 139810 234477 1048576 139810 783286 444596 497025 792723 393216 433062 380633 303038 157286 324010 404750 52429 2506097 1059062 262144
BeginChars: 264 110

StartChar: A
Encoding: 65 65 0
Width: 600
VWidth: 0
Flags: HW
LayerCount: 2
Fore
SplineSet
242.666015625 650.666992188 m 0
 279.416992188 732 287.056640625 740.666992188 322 740.666992188 c 0
 371.399414062 740.666992188 376.655273438 732.666992188 427.114257812 580.666992188 c 0
 472.852539062 442.889648438 487.696289062 375.333984375 516.176757812 175.333984375 c 0
 536.303710938 34 529.05859375 -6 483.333007812 -6 c 0
 447.435546875 -6 434.248046875 26 426.185546875 132.666992188 c 0
 422.45703125 182 414.166015625 228.196289062 408 234 c 0
 401.766601562 239.8671875 348.666015625 246.766601562 290 249.333984375 c 2
 183.333007812 254 l 1
 159.090820312 174 l 2
 119.8984375 44.6669921875 113.720703125 34 78 34 c 0
 60.666015625 34 42.9443359375 41.9443359375 39.3330078125 51.333984375 c 0
 31.220703125 72.4248046875 68.8779296875 216.666992188 102.684570312 294 c 0
 115.5078125 323.333984375 143.099609375 395.333984375 164 454 c 0
 184.899414062 512.666992188 220.299804688 601.166992188 242.666015625 650.666992188 c 0
363.333007812 481.333984375 m 0
 348.74609375 524 331.833984375 564.166015625 326 570 c 0
 320.169921875 575.830078125 295.080078125 532 270.666015625 473.333984375 c 0
 246.251953125 414.666992188 229.325195312 362.977539062 233.333007812 359.333984375 c 0
 237.392578125 355.643554688 274 349.095703125 315.333007812 344.666992188 c 0
 388.666015625 336.809570312 390 337.262695312 390 370 c 0
 390 388.234375 377.919921875 438.666992188 363.333007812 481.333984375 c 0
EndSplineSet
Validated: 33
EndChar

StartChar: B
Encoding: 66 66 1
Width: 600
VWidth: 0
Flags: HW
LayerCount: 2
Back
Fore
SplineSet
231.333007812 697.344726562 m 4
 320.666015625 710.693359375 442.870117188 666.772460938 481.469726562 607.444335938 c 4
 513.56640625 558.110351562 510.758789062 460.288085938 476.189453125 423.444335938 c 6
 448.666015625 394.110351562 l 5
 481.224609375 356.77734375 l 6
 518.88671875 313.590820312 524.889648438 234.110351562 494.8203125 176.77734375 c 4
 473.100585938 135.365234375 400.666015625 64.197265625 358 42.3486328125 c 4
 294 9.576171875 124.836914062 36.48046875 99.6083984375 83.4443359375 c 4
 90.677734375 100.069335938 90.666015625 123.444335938 99.5751953125 151.444335938 c 4
 120.673828125 217.75390625 151.926757812 410.110351562 161.749023438 534.110351562 c 4
 172.309570312 667.444335938 181.908203125 689.958984375 231.333007812 697.344726562 c 4
378 580 m 4
 362 591.333007812 328.666015625 600.77734375 304.666015625 600.77734375 c 4
 260.666015625 600.77734375 260.666015625 600.77734375 260.666015625 534.110351562 c 6
 260.666015625 467.444335938 l 5
 312.666015625 467.444335938 l 6
 340.666015625 467.444335938 374.512695312 471.1953125 386 475.571289062 c 4
 417.85546875 487.70703125 412.666015625 555.444335938 378 580 c 4
387.333007812 328.349609375 m 4
 368.942382812 340.35546875 328 353.099609375 296 356.77734375 c 6
 238 363.444335938 l 5
 216.109375 252.77734375 l 6
 191.318359375 127.444335938 194.51171875 120.765625 279.333007812 120.546875 c 4
 391.333007812 120.258789062 471.071289062 273.682617188 387.333007812 328.349609375 c 4
EndSplineSet
Validated: 33
EndChar

StartChar: C
Encoding: 67 67 2
Width: 600
VWidth: 0
Flags: HW
LayerCount: 2
Back
Fore
SplineSet
329.333007812 634.39453125 m 0
 393.333007812 657.333007812 393.333007812 657.333007812 437.333007812 634.518554688 c 0
 477.333007812 613.77734375 525.653320312 524.266601562 517.866210938 485.333007812 c 0
 509.731445312 444.655273438 480.205078125 449.333007812 433.717773438 498.666992188 c 0
 384.115234375 551.306640625 364 555.836914062 308 526.981445312 c 0
 196 469.26953125 117.10546875 278.749023438 159.345703125 168 c 0
 184.922851562 100.94140625 356 88.7109375 432 148.508789062 c 0
 506.666992188 207.256835938 552.926757812 137.068359375 480 75.6796875 c 0
 403.880859375 11.6044921875 294.666992188 -2.23828125 181.333007812 37.8232421875 c 0
 99.7587890625 66.6591796875 69.7734375 106.666992188 58.7861328125 201.333007812 c 0
 37.5830078125 384 154.969726562 571.8984375 329.333007812 634.39453125 c 0
EndSplineSet
Validated: 33
EndChar

StartChar: D
Encoding: 68 68 3
Width: 600
VWidth: 0
Flags: HW
LayerCount: 2
Back
Fore
SplineSet
218.666992188 657.06640625 m 0
 284 668.5 420.794921875 633.330078125 477.333007812 590.564453125 c 0
 542.727539062 541.098632812 565.333007812 486.666992188 565.333007812 378.666992188 c 0
 565.333007812 301.333007812 559.200195312 274.819335938 529.555664062 224 c 0
 475.56640625 131.447265625 426.666992188 98.1767578125 276 51.482421875 c 0
 201.333007812 28.341796875 134.287109375 4.22265625 127.333007812 -2 c 0
 120.173828125 -8.40625 101.333007812 -13.3330078125 84 -13.3330078125 c 0
 45.3798828125 -13.3330078125 32.59765625 30.6669921875 50.6884765625 101.333007812 c 0
 57.96484375 129.759765625 68.2314453125 198.666992188 73.3330078125 253.333007812 c 0
 78.4716796875 308.389648438 93.9208984375 406.666992188 107.706054688 472 c 0
 133.87109375 596 164.836914062 647.646484375 218.666992188 657.06640625 c 0
382.666992188 539.814453125 m 0
 330.666992188 561.20703125 232.092773438 566.200195312 221.0703125 548 c 0
 210.754882812 530.967773438 174.22265625 313.333007812 164.444335938 210.666992188 c 0
 154.46484375 105.8828125 152 107.162109375 284 148.633789062 c 0
 429.333007812 194.293945312 492.821289062 284.40625 473.30859375 417.333007812 c 0
 462.935546875 488 442.94140625 515.017578125 382.666992188 539.814453125 c 0
EndSplineSet
Validated: 33
EndChar

StartChar: E
Encoding: 69 69 4
Width: 600
VWidth: 0
Flags: HW
LayerCount: 2
Back
Fore
SplineSet
156 605.333007812 m 0
 166.806640625 616.140625 444 616.41015625 472 605.640625 c 0
 500 594.872070312 500 538.768554688 472 528.116210938 c 0
 460.239257812 523.641601562 404 520 346.666992188 520 c 2
 242.666992188 520 l 1
 234 450 l 2
 229.212484523 411.333058094 218.314453125 347.784179688 215 336 c 0
 209.951171875 318.048828125 230.667017206 336.132196927 322.666992188 329.755859375 c 0
 462.666992188 320.052734375 481.973632812 312.333007812 477.125 268 c 2
 473.333007812 233.333007812 l 1
 353.333007812 237.333007812 l 2
 286.666977013 239.555208839 210.258789062 246.295898438 201 240 c 0
 191.841796875 233.772460938 196.395537371 191.333003915 192 158 c 2
 184 97.3330078125 l 1
 295.333007812 88 l 2
 356.666992188 82.8583984375 417.4453125 75.4541015625 430.666992188 71.5126953125 c 0
 461.333007812 62.3720703125 461.333007812 5.689453125 430.666992188 -5.86328125 c 0
 408.166992188 -14.3388671875 197.333007812 -4.73828125 137.333007812 7.4951171875 c 0
 82.779296875 18.6181640625 80.16015625 48 113.637695312 273.333007812 c 0
 131.0703125 390.666992188 145.633789062 511.266601562 146 541.333007812 c 0
 146.374023438 572 150.764648438 600.09765625 156 605.333007812 c 0
EndSplineSet
Validated: 33
EndChar

StartChar: F
Encoding: 70 70 5
Width: 600
VWidth: 0
Flags: HW
LayerCount: 2
Back
Fore
SplineSet
227.333007812 714 m 0
 271.971679688 725.057617188 336 729.326171875 393.333007812 725.06640625 c 0
 518.666992188 715.755859375 533.333007812 710.197265625 533.333007812 672 c 0
 533.333007812 632.310546875 493.333007812 620.59375 396 631.770507812 c 0
 337.333007812 638.506835938 234.239257812 626.163085938 219.7421875 610.666992188 c 0
 217.669921875 608.451171875 213.91796875 568 211.333007812 520 c 2
 206.666992188 433.333007812 l 1
 316 438.133789062 l 2
 449.333007812 443.987304688 480 435.360351562 480 392 c 0
 480 354.393554688 465.333007812 349.93359375 317.333007812 342.533203125 c 0
 260 339.666992188 209.743164062 333.743164062 205.333007812 329.333007812 c 0
 200.962890625 324.962890625 192.494140625 256 186.666992188 177.333007812 c 0
 180.83984375 98.6669921875 171.9375 23.0498046875 167.044921875 10.6669921875 c 0
 157.563476562 -13.3330078125 100.762695312 -21.9580078125 88.017578125 -1.3330078125 c 0
 75.6396484375 18.697265625 124.524414062 654.666992188 140.08203125 676 c 0
 148.110351562 687.008789062 187.333007812 704.091796875 227.333007812 714 c 0
EndSplineSet
Validated: 33
EndChar

StartChar: G
Encoding: 71 71 6
Width: 600
VWidth: 0
Flags: HW
LayerCount: 2
Back
Fore
SplineSet
282.666992188 626.685546875 m 0
 312 644.451171875 350 653.333007812 396.666992188 653.333007812 c 0
 456.666992188 653.333007812 473.5234375 647.0546875 514.666992188 609.3828125 c 0
 593.295898438 537.38671875 540 484.528320312 453.333007812 548.552734375 c 0
 398.532226562 589.036132812 338.666992188 574.24609375 256 499.796875 c 0
 180.778320312 432.053710938 137.057617188 349.333007812 115.869140625 234.666992188 c 0
 101.580078125 157.333007812 101.943359375 155.478515625 137.333007812 125.236328125 c 0
 186.666992188 83.0791015625 307.116210938 69.0537109375 354.666992188 99.9306640625 c 0
 397.333007812 127.63671875 469.864257812 207.891601562 482.458984375 241.333007812 c 0
 491.2265625 264.612304688 484 266.666992188 393.333007812 266.666992188 c 0
 290.666992188 266.666992188 259.94140625 285.274414062 298.666992188 324 c 0
 323.295898438 348.629882812 557.333007812 365.729492188 582.666992188 344.75 c 0
 607.3046875 324.346679688 605.64453125 313.333007812 560.854492188 200 c 0
 539.249023438 145.333007812 521.15625 86.7021484375 520.942382812 70.6669921875 c 0
 520.55078125 41.3330078125 488.8046875 0 466.666992188 0 c 0
 459.809570312 0 446.952148438 8 436.666992188 18.6669921875 c 0
 421.23828125 34.6669921875 414 34.76171875 386 19.3330078125 c 0
 368.045898438 9.4404296875 314 1.033203125 266 0.6669921875 c 0
 192.666992188 0.1064453125 169.048828125 6.11328125 118.666992188 38.1357421875 c 0
 26.86328125 96.4853515625 21.7890625 106.666992188 29.349609375 217.333007812 c 0
 33.8134765625 282.666992188 47.3037109375 339.653320312 70.380859375 390.666992188 c 0
 105.967773438 469.333007812 205.416992188 579.900390625 282.666992188 626.685546875 c 0
EndSplineSet
Validated: 33
EndChar

StartChar: H
Encoding: 72 72 7
Width: 600
VWidth: 0
Flags: HW
LayerCount: 2
Fore
SplineSet
429.333007812 637.333007812 m 0
 450.76171875 658.76171875 473.829101562 657.333007812 493.922851562 633.333007812 c 0
 507.0234375 617.684570312 508.055664062 547.333007812 498.666992188 310 c 2
 486.666992188 6.6669921875 l 1
 450.666992188 2.7294921875 l 2
 405.818359375 -2.17578125 400.890625 13.3330078125 396.466796875 173.333007812 c 2
 393.333007812 286.666992188 l 1
 300 294.666992188 l 2
 248 299.124023438 204.895507812 301.485351562 202.666992188 300 c 0
 200.470703125 298.536132812 195.086914062 236 190.728515625 161.333007812 c 0
 181.702148438 6.6669921875 160.885742188 -34.2880859375 108 -1.4345703125 c 0
 94.3779296875 7.02734375 90.8095703125 74 91.3330078125 311.333007812 c 0
 91.701171875 478 95.720703125 619.30859375 100.301757812 626.666992188 c 0
 114.446289062 649.383789062 158.518554688 641.333007812 173.295898438 613.333007812 c 0
 180.66015625 599.381835938 186.666992188 546.666992188 186.666992188 496 c 2
 186.666992188 404 l 1
 236.666992188 395.333007812 l 2
 264.715820312 390.471679688 310.666992188 386.666992188 341.333007812 386.666992188 c 2
 396 386.666992188 l 1
 404.666992188 448.666992188 l 2
 409.512695312 483.333007812 413.333007812 535.060546875 413.333007812 566 c 0
 413.333007812 596.666992188 420.465820312 628.465820312 429.333007812 637.333007812 c 0
EndSplineSet
Validated: 33
EndChar

StartChar: I
Encoding: 73 73 8
Width: 600
VWidth: 0
Flags: HW
LayerCount: 2
Back
Fore
SplineSet
180 665.59375 m 0
 201.883789062 672.016601562 287.333007812 677.9375 368.666992188 678.666992188 c 0
 488.666992188 679.743164062 520.67578125 675.88671875 534.666992188 658.666992188 c 0
 547.272460938 643.151367188 548.181640625 631.333007812 538 615.333007812 c 0
 527.28125 598.489257812 504 593.333007812 438.666992188 593.333007812 c 2
 353.333007812 593.333007812 l 1
 344 520 l 2
 338.850585938 479.540039062 330.78125 368.666992188 326 272.666992188 c 2
 317.333007812 98.6669921875 l 1
 402 86 l 2
 480.666992188 74.2314453125 486.666992188 70.970703125 486.666992188 40 c 2
 486.666992188 6.6669921875 l 1
 340 5.3330078125 l 2
 258.666992188 4.59375 181.157226562 0.1396484375 166 -4.6669921875 c 0
 150 -9.740234375 128.9921875 -6.4228515625 115.333007812 3.3330078125 c 0
 95.1533203125 17.748046875 94.4326171875 23.3330078125 110 44.6669921875 c 0
 119.913085938 58.2509765625 148.666992188 73.5263671875 174 78.6669921875 c 2
 220 88 l 1
 234.666992188 227.333007812 l 2
 242.666992188 303.333007812 253.272460938 417.272460938 258 478 c 2
 266.666992188 589.333007812 l 1
 195.333007812 580.666992188 l 2
 139.333007812 573.86328125 122.346679688 576.298828125 116.307617188 592 c 0
 105.596679688 619.849609375 133.333007812 651.8984375 180 665.59375 c 0
EndSplineSet
Validated: 33
EndChar

StartChar: J
Encoding: 74 74 9
Width: 600
VWidth: 0
Flags: HW
LayerCount: 2
Back
Fore
SplineSet
254.666992188 621.920898438 m 0
 287.10546875 630.443359375 364 637.811523438 426.666992188 638.40234375 c 0
 550.666992188 639.572265625 592.715820312 623.580078125 583.733398438 578.666992188 c 0
 579.390625 556.952148438 567.333007812 553.333007812 499.333007812 553.333007812 c 2
 420 553.333007812 l 1
 416.740234375 506.666992188 l 2
 404.5390625 332 381.763671875 147.729492188 365.817382812 94.6669921875 c 0
 337.830078125 1.5390625 248 -66.6669921875 153.333007812 -66.6669921875 c 0
 112.22265625 -66.6669921875 31.0849609375 -1.3330078125 14.240234375 45.3330078125 c 0
 -9.3408203125 110.666992188 -3.513671875 171.0703125 28 187.952148438 c 0
 66.4736328125 208.563476562 85.9326171875 185.333007812 87.1533203125 117.333007812 c 0
 88.3037109375 53.3330078125 131.545898438 7.689453125 178.666992188 20.73828125 c 0
 241.333007812 38.0927734375 267.177734375 59.5771484375 280.4296875 105.333007812 c 0
 296.658203125 161.366210938 333.333007812 438.666992188 333.333007812 505.333007812 c 0
 333.333007812 554.272460938 342.666992188 552.788085938 216 524 c 0
 196 519.454101562 183.85546875 524.545898438 177.830078125 540 c 0
 163.669921875 576.32421875 190.666992188 605.107421875 254.666992188 621.920898438 c 0
EndSplineSet
Validated: 33
EndChar

StartChar: K
Encoding: 75 75 10
Width: 600
VWidth: 0
Flags: HW
LayerCount: 2
Back
Fore
SplineSet
426.666992188 552.159179688 m 0
 500 600.318359375 538.466796875 610.801757812 553.286132812 586.666992188 c 0
 569.854492188 559.685546875 545.333007812 526.286132812 482.666992188 490.4765625 c 0
 448.091796875 470.71875 385.333007812 421.083007812 342.666992188 379.75 c 0
 258.666992188 298.375 257.466796875 283.048828125 330.666992188 226.484375 c 0
 350.626953125 211.060546875 391.9140625 168.666992188 423.333007812 131.333007812 c 0
 468.217773438 78 476.950195312 60.119140625 465.333007812 45.3330078125 c 0
 456.952148438 34.6669921875 444.095703125 26.6669921875 435.333007812 26.6669921875 c 0
 426.854492188 26.6669921875 369.631835938 77.3330078125 307.333007812 140 c 0
 245.03515625 202.666992188 190.494140625 253.333007812 185.333007812 253.333007812 c 0
 175.90234375 253.333007812 160 138.666992188 160 70.6669921875 c 0
 160 2.6669921875 97.3046875 -37.267578125 76.2685546875 17.3330078125 c 0
 66.373046875 43.0166015625 117.333007812 530.666992188 132.977539062 560 c 0
 147.911132812 588 192.461914062 596.05078125 206.765625 573.333007812 c 0
 211.815429688 565.3125 208.75 520 200 473.333007812 c 0
 191.25 426.666992188 186.71875 380.145507812 190 370.666992188 c 0
 193.762695312 359.796875 225.333007812 381.423828125 274.666992188 428.666992188 c 0
 317.333007812 469.525390625 386.892578125 526.0390625 426.666992188 552.159179688 c 0
EndSplineSet
Validated: 33
EndChar

StartChar: L
Encoding: 76 76 11
Width: 600
VWidth: 0
Flags: HW
LayerCount: 2
Back
Fore
SplineSet
185.099609375 537.333007812 m 0
 198.83203125 573.333007812 242.551757812 587.515625 259.087890625 561.333007812 c 0
 263.260742188 554.725585938 255.282226562 475.333007812 241.333007812 384.666992188 c 0
 227.384765625 294 212.10546875 191.538085938 207.333007812 156.666992188 c 2
 198.666992188 93.3330078125 l 1
 344 102 l 2
 472 109.6328125 490.315429688 108.122070312 497.567382812 89.3330078125 c 0
 516.275390625 40.8623046875 496 32.48046875 318.666992188 15.380859375 c 0
 222.666992188 6.1240234375 139.681640625 2.236328125 132.666992188 6.6669921875 c 0
 125.77734375 11.017578125 120 49.3330078125 120 90.6669921875 c 0
 120 177.333007812 164.658203125 483.7421875 185.099609375 537.333007812 c 0
EndSplineSet
Validated: 33
EndChar

StartChar: M
Encoding: 77 77 12
Width: 600
VWidth: 0
Flags: HW
LayerCount: 2
Back
Fore
SplineSet
474.9140625 569.333007812 m 0
 496.90234375 605.333007812 540.372070312 608.841796875 557.506835938 576 c 0
 577.948242188 536.822265625 604.241210938 250.666992188 597.446289062 141.333007812 c 0
 590.486328125 29.3330078125 574.315429688 -2.1142578125 536 21.8330078125 c 0
 516.594726562 33.9619140625 512.7578125 62.6669921875 509.333007812 221.333007812 c 0
 507.146484375 322.666992188 500.499023438 411.500976562 494.666992188 417.333007812 c 0
 488.801757812 423.198242188 447.383789062 352.666992188 402.666992188 260.666992188 c 0
 340.451171875 132.666992188 315.37890625 93.3330078125 296 93.3330078125 c 0
 256.813476562 93.3330078125 245.510742188 114.666992188 212.638671875 250.666992188 c 0
 196.202148438 318.666992188 178.412109375 369.849609375 173.247070312 364 c 0
 158.6953125 347.522460938 92.849609375 52 93.03515625 4 c 0
 93.19921875 -38.6669921875 69.4248046875 -58.390625 40 -40 c 0
 2.2705078125 -16.4189453125 9.51953125 82.6669921875 64.775390625 298.666992188 c 0
 94.44921875 414.666992188 125.856445312 518.021484375 134.666992188 528.666992188 c 0
 143.466796875 539.299804688 162.666992188 546.344726562 177.333007812 544.322265625 c 0
 206.762695312 540.262695312 252.403320312 444 286.219726562 314.666992188 c 2
 304 246.666992188 l 1
 340.969726562 326.666992188 l 2
 373.234375 396.484375 409.764648438 462.666992188 474.9140625 569.333007812 c 0
EndSplineSet
Validated: 33
EndChar

StartChar: N
Encoding: 78 78 13
Width: 600
VWidth: 0
Flags: HW
LayerCount: 2
Back
Fore
SplineSet
488.984375 577.333007812 m 0
 508.19140625 616 555.578125 626.447265625 567.603515625 594.666992188 c 0
 571.52734375 584.295898438 562.518554688 538.666992188 547.333007812 492 c 0
 532.232421875 445.590820312 514.033203125 354 506.666992188 287.333007812 c 0
 499.299804688 220.666992188 486.348632812 127.881835938 477.725585938 80 c 0
 450.350585938 -72 419.143554688 -74.0458984375 335.34375 70.6669921875 c 0
 222.615234375 265.333007812 135.461914062 400.668945312 129.26953125 390.666992188 c 0
 125.633789062 384.791992188 118.473632812 297.333007812 113.333007812 196 c 0
 105.623046875 44 100.057617188 9.935546875 81.3330078125 0.126953125 c 0
 27.34765625 -28.1513671875 21.2900390625 -1.3330078125 30.7724609375 224 c 0
 39.693359375 436 52 506.666992188 80 506.666992188 c 0
 87.822265625 506.666992188 104 516 114.666992188 526.666992188 c 0
 138.666992188 550.666992188 186.666992188 532 186.666992188 498.666992188 c 0
 186.666992188 464 385.743164062 144.571289062 401.333007812 154.22265625 c 0
 406.505859375 157.424804688 414.689453125 209.333007812 419.69140625 270.666992188 c 0
 429.150390625 386.666992188 458.25390625 515.466796875 488.984375 577.333007812 c 0
EndSplineSet
Validated: 33
EndChar

StartChar: O
Encoding: 79 79 14
Width: 600
VWidth: 0
Flags: HW
LayerCount: 2
Back
Fore
SplineSet
221.849609375 548 m 0
 290.939453125 629.333007812 305.41015625 640 346.666992188 640 c 0
 415.356445312 640 477.03515625 596 509.2734375 524 c 0
 532.84375 471.360351562 536.115234375 445.333007812 529.71875 361.333007812 c 0
 520.48046875 240 503.732421875 178.677734375 463.80859375 120 c 0
 293.59765625 -130.163085938 -3.1708984375 1.3330078125 66.6015625 296 c 0
 85.8359375 377.23046875 109.720703125 416 221.849609375 548 c 0
421.705078125 513.333007812 m 0
 409.55078125 532 392.959960938 546.30859375 384 545.853515625 c 0
 319.440429688 542.5703125 200.803710938 421.333007812 165.6015625 322.666992188 c 0
 155.970703125 295.672851562 147.698242188 241.333007812 147.333007812 202.666992188 c 0
 146.791992188 145.333007812 152.956054688 125.7109375 180 98.6669921875 c 0
 241.818359375 36.8486328125 342.008789062 72 400.419921875 176 c 0
 443.10546875 252 456.248046875 460.286132812 421.705078125 513.333007812 c 0
EndSplineSet
Validated: 33
EndChar

StartChar: P
Encoding: 80 80 15
Width: 600
VWidth: 0
Flags: HW
LayerCount: 2
Back
Fore
SplineSet
90.6669921875 689.333007812 m 0
 103.873046875 702.540039062 114.666992188 703.174804688 136 692 c 0
 153.77734375 682.6875 194.666992188 680.657226562 248 686.438476562 c 0
 434.666992188 706.670898438 546.603515625 648.197265625 548.745117188 529.333007812 c 0
 550.0859375 454.915039062 516 402.397460938 436 355.62109375 c 0
 370.666992188 317.420898438 252.563476562 280 197.333007812 280 c 2
 160 280 l 1
 160 154 l 2
 160 56.6669921875 155.146484375 23.146484375 138.666992188 6.6669921875 c 0
 82.0517578125 -49.9482421875 77.1640625 -24 75.138671875 344 c 0
 73.7294921875 600 77.138671875 675.8046875 90.6669921875 689.333007812 c 0
437.333007812 579.396484375 m 0
 416.19921875 594.241210938 378 599.626953125 300.666992188 598.666992188 c 0
 242 597.9375 185.776367188 594.310546875 176.666992188 590.666992188 c 0
 165.274414062 586.109375 160 550.666992188 160 478.666992188 c 2
 160 373.333007812 l 1
 212 373.333007812 l 2
 277.333007812 373.333007812 366.556640625 404.674804688 422.666992188 447.333007812 c 0
 477.333007812 488.89453125 483.762695312 546.786132812 437.333007812 579.396484375 c 0
EndSplineSet
Validated: 33
EndChar

StartChar: Q
Encoding: 81 81 16
Width: 600
VWidth: 0
Flags: HW
LayerCount: 2
Back
Fore
SplineSet
321.333007812 704.08984375 m 0
 404 727.180664062 477.604492188 696.747070312 515.029296875 624 c 0
 543.3671875 568.916015625 531.086914062 388 491.13671875 272 c 2
 462.666992188 189.333007812 l 1
 503.162109375 137.333007812 l 2
 562.34765625 61.3330078125 574.79296875 33.458984375 557.333007812 16 c 0
 531.77734375 -9.5556640625 516.291992188 -2.6669921875 464.416992188 57.3330078125 c 2
 416 113.333007812 l 1
 385.333007812 85.130859375 l 2
 246.7578125 -42.3095703125 80.8486328125 -29.3330078125 41.78515625 112 c 0
 17.646484375 199.330078125 64.22265625 390.666992188 147.59375 546.666992188 c 0
 193.91015625 633.333007812 250.013671875 684.16796875 321.333007812 704.08984375 c 0
439.854492188 586.666992188 m 0
 416.18359375 630.891601562 315.801757812 625.333007812 271.2890625 577.333007812 c 0
 172.374023438 470.666992188 89.74609375 187.466796875 133.577148438 105.333007812 c 0
 154.731445312 65.693359375 225.333007812 72.154296875 290.666992188 119.709960938 c 0
 352 164.353515625 358.069335938 184.969726562 320 219.354492188 c 0
 288 248.2578125 284.912109375 303.642578125 314.666992188 315.01953125 c 0
 325.77734375 319.267578125 345.333007812 313.185546875 358.666992188 301.333007812 c 0
 372 289.481445312 388.592773438 280 396 280 c 0
 427.65234375 280 464.833007812 540 439.854492188 586.666992188 c 0
EndSplineSet
Validated: 33
EndChar

StartChar: R
Encoding: 82 82 17
Width: 600
VWidth: 0
Flags: HW
LayerCount: 2
Back
Fore
SplineSet
214.666992188 621.396484375 m 0
 276 643.897460938 394.149414062 643.83203125 437.333007812 621.2734375 c 0
 501.05859375 587.984375 523.579101562 552 522.409179688 485.333007812 c 0
 521.82421875 452 517.525390625 411.217773438 512.993164062 396 c 0
 502.005859375 359.116210938 405.333007812 257.094726562 357.333007812 231.728515625 c 0
 337.333007812 221.16015625 320 207.047851562 320 201.333007812 c 0
 320 195.515625 346.666992188 180.515625 378.666992188 168.333007812 c 0
 457.333007812 138.38671875 540.86328125 65.2021484375 529.708007812 36 c 0
 518.065429688 5.5234375 477.333007812 7.8095703125 434.666992188 41.3330078125 c 0
 394.666992188 72.76171875 230.911132812 145.5390625 198.666992188 146.217773438 c 0
 183.083984375 146.545898438 174.098632812 126 165.333007812 70 c 0
 154.481445312 0.6669921875 150.14453125 -6.6669921875 120 -6.6669921875 c 0
 87.111328125 -6.6669921875 86.7109375 -5.3330078125 90 93.3330078125 c 0
 91.8310546875 148.250976562 105.35546875 266.666992188 120 356 c 0
 134.64453125 445.333007812 143.602539062 526.48046875 139.869140625 536 c 0
 129.514648438 562.403320312 165.333007812 603.297851562 214.666992188 621.396484375 c 0
409.333007812 539.825195312 m 0
 373.822265625 564.857421875 312 566.462890625 266.666992188 543.529296875 c 0
 237.415039062 528.731445312 230.720703125 510.666992188 212 396 c 0
 200.245117188 324 194.258789062 263.267578125 198.666992188 260.733398438 c 0
 215.2890625 251.17578125 320 301.8828125 364 340.796875 c 0
 446.666992188 413.909179688 466.213867188 499.728515625 409.333007812 539.825195312 c 0
EndSplineSet
Validated: 33
EndChar

StartChar: S
Encoding: 83 83 18
Width: 600
VWidth: 0
Flags: HW
LayerCount: 2
Back
Fore
SplineSet
268 684.10546875 m 0
 348 724.741210938 487.034179688 702.147460938 556 637.305664062 c 0
 619.25390625 577.833984375 576 519.733398438 506.666992188 571.040039062 c 0
 485.92578125 586.387695312 442.666992188 605.370117188 409.333007812 613.75 c 0
 303.932617188 640.248046875 235.76171875 582.666992188 243.090820312 473.333007812 c 0
 246.453125 423.18359375 252 416.799804688 336 366.400390625 c 0
 541.333007812 243.200195312 566.948242188 159.125976562 434.666992188 42.5615234375 c 0
 376.793945312 -8.435546875 276 -23.904296875 156 -0.20703125 c 0
 72 16.380859375 26.6669921875 43.0927734375 26.6669921875 76 c 0
 26.6669921875 106.060546875 58.6669921875 109.1171875 144 87.20703125 c 0
 188 75.91015625 238.400390625 66.6669921875 256 66.6669921875 c 0
 317.333007812 66.6669921875 384.262695312 94.0078125 406.138671875 128 c 0
 444.0625 186.928710938 424 218.75 304 290 c 0
 168 370.75 155.34375 389.5 162.25 500 c 0
 168.5 600 195.72265625 647.393554688 268 684.10546875 c 0
EndSplineSet
Validated: 33
EndChar

StartChar: T
Encoding: 84 84 19
Width: 600
VWidth: 0
Flags: HW
LayerCount: 2
Back
Fore
SplineSet
86.6669921875 643.809570312 m 0
 151.750976562 653.107421875 386.666992188 653.409179688 482.666992188 644.318359375 c 0
 573.333007812 635.732421875 594.02734375 621.103515625 577.424804688 577.333007812 c 0
 570.396484375 558.803710938 554 557.2265625 452.666992188 565.333007812 c 2
 336 574.666992188 l 1
 328.666992188 510.666992188 l 2
 324.629882812 475.4375 310.84375 348.666992188 298 228.666992188 c 0
 279.58984375 56.6669921875 270.024414062 8.275390625 252.666992188 -0.6669921875 c 0
 238.837890625 -7.7900390625 222 -5.8095703125 207.333007812 4.6669921875 c 0
 185.30859375 20.3984375 185.196289062 29.3330078125 205.333007812 164 c 0
 217.096679688 242.666992188 230.5546875 367.078125 235.333007812 441.333007812 c 2
 244 576 l 1
 178.666992188 567.333007812 l 2
 142.666992188 562.557617188 100.163085938 552.168945312 84 544.1953125 c 0
 48.6669921875 526.764648438 13.3330078125 548 13.3330078125 586.666992188 c 0
 13.3330078125 618.060546875 37.3330078125 636.76171875 86.6669921875 643.809570312 c 0
EndSplineSet
Validated: 33
EndChar

StartChar: U
Encoding: 85 85 20
Width: 600
VWidth: 0
Flags: HW
LayerCount: 2
Back
Fore
SplineSet
500.627929688 597.333007812 m 0
 541.970703125 656.123046875 594.962890625 610.666992188 579.901367188 529.333007812 c 0
 575.546875 505.818359375 567.765625 381.333007812 562.56640625 252 c 0
 552.489257812 1.3330078125 541.885742188 -39.326171875 493.333007812 -13.4833984375 c 0
 472.801757812 -2.5556640625 467.2421875 19.3330078125 464 102 c 2
 460 204 l 1
 400 128 l 2
 337.204101562 48.458984375 293.333007812 26.6669921875 196 26.6669921875 c 0
 125.333007812 26.6669921875 74.837890625 56.81640625 46.384765625 116 c 0
 25.7470703125 158.926757812 23.5810546875 192 29.70703125 370.666992188 c 0
 37.0205078125 584 49.6875 627.844726562 98.6669921875 609.376953125 c 0
 116.952148438 602.482421875 120 568 120 368 c 0
 120 145.333007812 121.280273438 133.966796875 148 119.364257812 c 0
 201.01953125 90.388671875 274.03515625 116 336.0703125 185.333007812 c 0
 382.321289062 237.025390625 401.666992188 276 436.666992188 388 c 0
 460.416992188 464 480 536.006835938 480 547.333007812 c 0
 480 558.606445312 489.375976562 581.333007812 500.627929688 597.333007812 c 0
EndSplineSet
Validated: 33
EndChar

StartChar: V
Encoding: 86 86 21
Width: 600
VWidth: 0
Flags: HW
LayerCount: 2
Back
Fore
SplineSet
453.333007812 573.333007812 m 0
 487.212890625 640 499.956054688 653.921875 524 650.53515625 c 0
 575.512695312 643.280273438 563.666992188 597.333007812 468 433.333007812 c 0
 416.666992188 345.333007812 345.250976562 212.733398438 309.298828125 138.666992188 c 0
 216.749023438 -52 185.455078125 -53.849609375 128.836914062 128 c 0
 93.966796875 240 40 498.379882812 40 553.333007812 c 0
 40 570.666992188 48.6953125 591.24609375 60 600.666992188 c 0
 95.8251953125 630.520507812 113.123046875 592 153.102539062 393.333007812 c 0
 173.762695312 290.666992188 196.366210938 191.666992188 203.333007812 173.333007812 c 0
 215.415039062 141.538085938 217.96875 144 258.666992188 226.666992188 c 0
 282.228515625 274.52734375 326.109375 353.333007812 356.666992188 402.666992188 c 0
 387.223632812 452 430.5078125 528.41796875 453.333007812 573.333007812 c 0
EndSplineSet
Validated: 33
EndChar

StartChar: W
Encoding: 87 87 22
Width: 600
VWidth: 0
Flags: HW
LayerCount: 2
Back
Fore
SplineSet
28.5 581.333007812 m 0
 49.4052734375 607.063476562 76.58203125 605.333007812 91.345703125 577.333007812 c 0
 98.36328125 564.024414062 120.036132812 488 140 406.666992188 c 0
 159.963867188 325.333007812 177.484375 258.515625 179.333007812 256.666992188 c 0
 181.154296875 254.845703125 199.250976562 318.666992188 219.220703125 397.333007812 c 0
 265.927734375 581.333007812 273.859375 600 305.333007812 600 c 0
 340.190429688 600 342.764648438 594.666992188 386.423828125 432 c 0
 407.180664062 354.666992188 427.282226562 288.717773438 431.333007812 284.666992188 c 0
 435.426757812 280.573242188 445.073242188 302.666992188 453.165039062 334.666992188 c 0
 511.494140625 565.333007812 537.951171875 614.048828125 581.333007812 570.666992188 c 0
 598.905273438 553.094726562 597.287109375 536.666992188 568 435.333007812 c 0
 549.521484375 371.3984375 524.727539062 265.333007812 512.36328125 197.333007812 c 0
 484 41.3330078125 484 41.3330078125 460 32.1025390625 c 0
 423.185546875 17.943359375 404.2578125 52 359.276367188 213.333007812 c 0
 334.741210938 301.333007812 311.366210938 373.333007812 307.333007812 373.333007812 c 0
 303.296875 373.333007812 282.923828125 308 262.015625 228 c 0
 219.5 65.3330078125 196.928710938 23.0107421875 156 29.2119140625 c 0
 124.896484375 33.9248046875 116.486328125 57.3330078125 94.1669921875 201.333007812 c 0
 85.6259765625 256.435546875 64 360 46 432 c 0
 21 532 16.892578125 567.047851562 28.5 581.333007812 c 0
EndSplineSet
Validated: 33
EndChar

StartChar: X
Encoding: 88 88 23
Width: 600
VWidth: 0
Flags: HW
LayerCount: 2
Back
Fore
SplineSet
438 560.666992188 m 0
 499.541015625 634 553.5078125 693.333007812 558.666992188 693.333007812 c 0
 573.189453125 693.333007812 600 661.333007812 600 644 c 0
 600 635.272460938 545.454101562 564.666992188 480 488.666992188 c 0
 414.545898438 412.666992188 360 342.666992188 360 334.666992188 c 0
 360 308.666992188 414.455078125 209.333007812 468.911132812 136 c 0
 525.346679688 60 531.59375 9.2216796875 485.333007812 2.5263671875 c 0
 464.8203125 -0.4423828125 442.974609375 22.6669921875 390.666992188 102.666992188 c 0
 353.1796875 160 315.188476562 221.325195312 306 239.333007812 c 2
 289.333007812 272 l 1
 236.666992188 212.666992188 l 2
 208.009765625 180.3828125 156.647460938 112 124 62.6669921875 c 0
 76.3525390625 -9.3330078125 58.09765625 -27.1767578125 35.3330078125 -24 c 0
 19.3330078125 -21.767578125 4.8115234375 -9.984375 2.46875 2.6669921875 c 0
 -2.4765625 29.3759765625 75.5556640625 148 172.623046875 261.333007812 c 0
 209.166992188 304 240 349.15234375 240 360 c 0
 240 386.720703125 167.063476562 532 132.227539062 574.666992188 c 0
 101.747070312 612 109.333007812 653.333007812 146.666992188 653.333007812 c 0
 177.971679688 653.333007812 233.8828125 586.666992188 277.498046875 497.333007812 c 0
 296.376953125 458.666992188 315.3203125 426.96875 319.333007812 427.333007812 c 0
 323.38671875 427.702148438 376.458984375 487.333007812 438 560.666992188 c 0
EndSplineSet
Validated: 33
EndChar

StartChar: Y
Encoding: 89 89 24
Width: 600
VWidth: 0
Flags: HW
LayerCount: 2
Back
Fore
SplineSet
456 656 m 0
 485.333007812 685.333007812 510.962890625 686.666992188 532.888671875 660 c 0
 546.044921875 644 545.06640625 633.333007812 528 606.666992188 c 0
 516.053710938 588 501.6796875 573.333007812 495.333007812 573.333007812 c 0
 488.986328125 573.333007812 468.747070312 551.333007812 449.333007812 523.333007812 c 0
 430.266601562 495.833007812 381.666992188 437.333007812 341.333007812 393.333007812 c 0
 285.111328125 332 267.897460938 303.377929688 267.5625 270.666992188 c 0
 266.701171875 186.666992188 236.703125 24.703125 218.666992188 6.6669921875 c 0
 196.482421875 -15.517578125 163.833007812 -6.6669921875 154.729492188 24 c 0
 151.028320312 36.466796875 153.700195312 70.6669921875 160.666992188 100 c 0
 167.576171875 129.090820312 173.333007812 200 173.333007812 256 c 0
 173.333007812 364 153.690429688 432.84375 96.8662109375 524 c 0
 61.1259765625 581.333007812 58 611.46484375 86.6669921875 622.323242188 c 0
 116.862304688 633.760742188 157.333007812 592 201.333007812 504 c 0
 222.666992188 461.333007812 244.78125 426.666992188 250.666992188 426.666992188 c 0
 264.1171875 426.666992188 343.948242188 512 392.866210938 578.666992188 c 0
 414.389648438 608 442.799804688 642.799804688 456 656 c 0
EndSplineSet
Validated: 33
EndChar

StartChar: Z
Encoding: 90 90 25
Width: 600
VWidth: 0
Flags: HW
LayerCount: 2
Back
Fore
SplineSet
81.3330078125 694.924804688 m 0
 124 721.818359375 435.579101562 697.786132812 476 664.484375 c 0
 505.478515625 640.198242188 496 607.544921875 445.333007812 558.842773438 c 0
 405.333007812 520.392578125 346.666992188 430.703125 346.666992188 408 c 0
 346.666992188 404.36328125 373.333007812 397.418945312 405.333007812 392.721679688 c 0
 465.333007812 383.9140625 485.734375 363.58984375 471.63671875 326.666992188 c 0
 465.89453125 311.62890625 442 306.666992188 375.333007812 306.666992188 c 2
 286.666992188 306.666992188 l 1
 224.666992188 196.666992188 l 2
 190.848632812 136.666992188 165.393554688 82.12109375 168.666992188 76.6669921875 c 0
 171.971679688 71.158203125 245.333007812 66.6669921875 332 66.6669921875 c 0
 496 66.6669921875 533.91796875 54.279296875 515.666992188 6.6669921875 c 0
 509.37109375 -9.755859375 478.666992188 -13.2138671875 344 -12.6669921875 c 0
 253.333007812 -12.2978515625 156.151367188 -7.8525390625 126.666992188 -2.724609375 c 0
 48.3720703125 10.8916015625 48.1865234375 52 125.810546875 186.666992188 c 0
 186.52734375 292 196.787109375 320 174.666992188 320 c 0
 157.599609375 320 146.034179688 356 155.389648438 380 c 0
 159.379882812 390.236328125 181.333007812 400.47265625 204 402.666992188 c 0
 237.459960938 405.904296875 250.920898438 417.333007812 274.666992188 462.666992188 c 0
 290.73046875 493.333007812 316.666992188 534.952148438 332 554.666992188 c 0
 347.555664062 574.666992188 360 595.704101562 360 602 c 0
 360 608.181640625 313.333007812 613.994140625 257.333007812 614.786132812 c 0
 121.333007812 616.7109375 75.3125 627.4375 69.06640625 658.666992188 c 0
 66.400390625 672 72.2109375 689.174804688 81.3330078125 694.924804688 c 0
EndSplineSet
Validated: 33
EndChar

StartChar: bracketleft
Encoding: 91 91 26
Width: 600
VWidth: 0
Flags: HW
LayerCount: 2
Back
Fore
SplineSet
365.043945312 673.102539062 m 0
 488.495117188 696.7421875 522.98828125 693.81640625 527.8515625 659.291992188 c 0
 533.807617188 616.998046875 507.080078125 604.123046875 362.389648438 579.587890625 c 2
 229.646484375 557.080078125 l 1
 212.099609375 423.008789062 l 2
 187.604492188 235.840820312 181.8125 141.127929688 191.723632812 89.8232421875 c 2
 200.442382812 44.6904296875 l 1
 322.56640625 40.7080078125 l 1
 444.690429688 36.7255859375 l 1
 448.672851562 0.2216796875 l 1
 452.655273438 -36.283203125 l 1
 307.96484375 -36.283203125 l 2
 104.8671875 -36.283203125 99.5791015625 -31.48046875 100.401367188 152.211914062 c 0
 101.232421875 338.052734375 137.272460938 595.858398438 167.020507812 628.760742188 c 0
 179.525390625 642.591796875 208.407226562 654.282226562 230.973632812 654.646484375 c 0
 253.900390625 655.015625 313.274414062 663.189453125 365.043945312 673.102539062 c 0
EndSplineSet
Validated: 33
EndChar

StartChar: backslash
Encoding: 92 92 27
Width: 600
VWidth: 0
Flags: HW
LayerCount: 2
Back
Fore
SplineSet
124.521484375 753.540039062 m 0
 133.771484375 777.43359375 177.91796875 779.071289062 196.0703125 756.194335938 c 0
 216.591796875 730.33203125 287.93359375 511.947265625 317.924804688 383.185546875 c 0
 332.765625 319.46875 359.614257812 229.263671875 376.991210938 184.734375 c 0
 394.53125 139.788085938 424.659179688 50 444.026367188 -15.0439453125 c 0
 474.065429688 -115.9296875 476.489257812 -135.900390625 460.619140625 -151.76953125 c 0
 431.517578125 -180.87109375 399.590820312 -158.407226562 385.155273438 -98.6728515625 c 0
 377.776367188 -68.1416015625 363.442382812 -24.9052734375 353.469726562 -3.09765625 c 0
 310.368164062 91.150390625 253.470703125 256.53515625 232.44921875 348.672851562 c 0
 219.982421875 403.313476562 188.7734375 512.610351562 163.274414062 590.9296875 c 0
 137.775390625 669.248046875 120.291992188 742.611328125 124.521484375 753.540039062 c 0
EndSplineSet
Validated: 33
EndChar

StartChar: bracketright
Encoding: 93 93 28
Width: 600
VWidth: 0
Flags: HW
LayerCount: 2
Back
Fore
SplineSet
112.83203125 699.115234375 m 0
 130.383789062 716.666992188 167.256835938 720.353515625 325.221679688 720.353515625 c 0
 562.83203125 720.353515625 560.717773438 722.348632812 512.3125 543.805664062 c 0
 492.202148438 469.625976562 473.731445312 351.327148438 465.265625 242.477539062 c 0
 457.625 144.248046875 443.23046875 36.283203125 433.407226562 3.5400390625 c 2
 415.486328125 -56.1943359375 l 1
 320.575195312 -65.486328125 l 2
 268.805664062 -70.5546875 212.993164062 -81.6015625 197.788085938 -89.7890625 c 0
 163.502929688 -108.25 129.303710938 -84.0703125 135.25390625 -45.5751953125 c 0
 139.731445312 -16.5966796875 226.991210938 16.0078125 301.327148438 16.478515625 c 0
 354.112304688 16.8125 354.524414062 18.1416015625 371.442382812 242.477539062 c 0
 378.849609375 340.708007812 394.627929688 457.669921875 406.360351562 501.327148438 c 0
 444.44921875 643.053710938 453.982421875 634.0703125 265.486328125 634.0703125 c 0
 123.451171875 634.0703125 98.984375 637.224609375 95.5751953125 655.973632812 c 0
 93.4033203125 667.919921875 101.247070312 687.530273438 112.83203125 699.115234375 c 0
EndSplineSet
Validated: 33
EndChar

StartChar: asciicircum
Encoding: 94 94 29
Width: 600
VWidth: 0
Flags: HW
LayerCount: 2
Back
Fore
SplineSet
307.96484375 763.2265625 m 0
 329.203125 770.559570312 361.4375 760.091796875 374.581054688 741.592773438 c 0
 380.333007812 733.497070312 384.956054688 697.124023438 384.956054688 659.956054688 c 0
 384.956054688 623.276367188 394.465820312 561.061523438 405.95703125 522.56640625 c 0
 429.3359375 444.248046875 424.352539062 415.043945312 387.610351562 415.043945312 c 0
 352.98828125 415.043945312 336.459960938 437.610351562 316.63671875 511.947265625 c 0
 307.43359375 546.459960938 296.44140625 574.3359375 292.03515625 574.3359375 c 0
 287.522460938 574.3359375 271.127929688 557.080078125 254.203125 534.513671875 c 0
 237.278320312 511.947265625 219.159179688 494.690429688 212.389648438 494.690429688 c 0
 188.495117188 494.690429688 160.375 535.918945312 168.930664062 558.407226562 c 0
 185.090820312 600.884765625 291.411132812 757.51171875 307.96484375 763.2265625 c 0
EndSplineSet
Validated: 33
EndChar

StartChar: underscore
Encoding: 95 95 30
Width: 600
VWidth: 0
Flags: HW
LayerCount: 2
Back
Fore
SplineSet
146.017578125 -2.43359375 m 0
 171.782226562 6.767578125 257.522460938 14.65625 338.495117188 15.2744140625 c 0
 495.1328125 16.4697265625 537.534179688 3.1552734375 528.052734375 -44.248046875 c 0
 523.388671875 -67.568359375 513.052734375 -69.1689453125 390.9296875 -65.486328125 c 0
 317.919921875 -63.28515625 229.759765625 -67.1416015625 193.805664062 -74.1103515625 c 0
 115.486328125 -89.2880859375 89.646484375 -81.7978515625 95.365234375 -45.5751953125 c 0
 98.0009765625 -28.8876953125 116.814453125 -12.86328125 146.017578125 -2.43359375 c 0
EndSplineSet
Validated: 33
EndChar

StartChar: grave
Encoding: 96 96 31
Width: 600
VWidth: 0
Flags: HW
LayerCount: 2
Back
Fore
SplineSet
220.353515625 737.610351562 m 0
 253.665039062 770.921875 389.229492188 673.893554688 381.708984375 622.124023438 c 0
 375.291015625 577.947265625 335.840820312 582.96484375 272.124023438 636.061523438 c 0
 216.372070312 682.522460938 199.115234375 716.372070312 220.353515625 737.610351562 c 0
EndSplineSet
Validated: 33
EndChar

StartChar: a
Encoding: 97 97 32
Width: 600
VWidth: 0
Flags: HW
LayerCount: 2
Back
Fore
SplineSet
233.333007812 375.474609375 m 0
 264.583007812 395.676757812 292 400.249023438 358.666992188 396.37890625 c 0
 460 390.494140625 480 370.432617188 480 274.666992188 c 0
 480 238.65625 487.180664062 171.333007812 496 124.666992188 c 0
 508.346679688 59.3330078125 508.346679688 36.3466796875 496 24 c 0
 472.62109375 0.62109375 438.389648438 25.3330078125 420.276367188 78.6669921875 c 2
 405.333007812 122.666992188 l 1
 368.627929688 74.6669921875 l 2
 286.0390625 -33.3330078125 241.333007812 -48.533203125 133.333007812 -5.3330078125 c 0
 90.6669921875 11.7333984375 77.06640625 26.1337890625 65.3330078125 66.6669921875 c 0
 52.18359375 112.091796875 54.3173828125 125.333007812 85.9599609375 194.666992188 c 0
 124.294921875 278.666992188 169.640625 334.299804688 233.333007812 375.474609375 c 0
373.333007812 274.666992188 m 0
 373.333007812 326.095703125 360 330.095703125 280 302.666992188 c 0
 244.892578125 290.629882812 222.599609375 268.666992188 190 214 c 0
 166.146484375 174 146.666992188 127.547851562 146.666992188 110.666992188 c 0
 146.666992188 76.8046875 188 49.8349609375 230.666992188 55.8583984375 c 0
 272.796875 61.806640625 373.333007812 216 373.333007812 274.666992188 c 0
EndSplineSet
Validated: 33
EndChar

StartChar: b
Encoding: 98 98 33
Width: 600
VWidth: 0
Flags: HW
LayerCount: 2
Back
Fore
SplineSet
128 753.333007812 m 0
 153.333007812 778.666992188 153.333007812 778.666992188 178.666992188 753.333007812 c 0
 202.076171875 729.923828125 205.981445312 594.666992188 189.137695312 390.666992188 c 0
 184.073242188 329.333007812 183.56640625 280 188 280 c 0
 192.32421875 280 218.666992188 298.049804688 245.333007812 319.284179688 c 0
 304.373046875 366.296875 386.666992188 381.939453125 464 360.848632812 c 0
 526.857421875 343.706054688 560 296 560 222.666992188 c 0
 560 120.126953125 360 -11.005859375 224 2.3642578125 c 0
 188 5.90234375 155.50390625 1.0546875 136.666992188 -10.6669921875 c 0
 111.333007812 -26.4296875 103.348632812 -26.6181640625 85.3330078125 -11.87890625 c 0
 61.677734375 7.4755859375 61.0302734375 -9.3330078125 100.166992188 373.333007812 c 0
 112.576171875 494.666992188 119.377929688 624.727539062 115.333007812 663.333007812 c 0
 109.885742188 715.333007812 113.142578125 738.4765625 128 753.333007812 c 0
471.581054688 250.666992188 m 0
 461.716796875 266.359375 436 274.564453125 388 277.333007812 c 0
 321.333007812 281.1796875 316.474609375 279.127929688 261.678710938 224 c 0
 164.647460938 126.380859375 166.666992188 71.1640625 266.666992188 87.58203125 c 0
 385.333007812 107.064453125 502.987304688 200.702148438 471.581054688 250.666992188 c 0
EndSplineSet
Validated: 33
EndChar

StartChar: c
Encoding: 99 99 34
Width: 600
VWidth: 0
Flags: HW
LayerCount: 2
Back
Fore
SplineSet
268 382.811523438 m 0
 333.333007812 404.158203125 379.541992188 403.049804688 440 378.686523438 c 0
 498.666992188 355.044921875 524.657226562 321.8515625 506.833007812 293.333007812 c 0
 499.231445312 281.169921875 484.666992188 278.982421875 458 286 c 0
 437.009765625 291.5234375 388.666992188 298.984375 350 302.666992188 c 0
 286 308.76171875 276.571289062 305.904296875 240 269.333007812 c 0
 186.666992188 216 182.717773438 132.444335938 232 100.080078125 c 0
 270.73046875 74.64453125 357.333007812 70.388671875 397.333007812 91.9541015625 c 0
 428 108.487304688 466.666992188 98.845703125 466.666992188 74.6669921875 c 0
 466.666992188 -0.533203125 306.666992188 -33.03125 200 20.5029296875 c 0
 128.16796875 56.5546875 114.150390625 89.3330078125 118.107421875 212 c 0
 119.69921875 261.333007812 128.166992188 278.409179688 171.333007812 319.333007812 c 0
 199.333007812 345.87890625 243.272460938 374.732421875 268 382.811523438 c 0
EndSplineSet
Validated: 33
EndChar

StartChar: d
Encoding: 100 100 35
Width: 600
VWidth: 0
Flags: HW
LayerCount: 2
Back
Fore
SplineSet
470.723632812 770.666992188 m 0
 478.309570312 780.571289062 496 786.400390625 512 784.266601562 c 0
 544.892578125 779.880859375 545.010742188 788 507.7890625 493.333007812 c 0
 492.462890625 372 480 230.876953125 480 178.666992188 c 0
 480 97.3330078125 475.868164062 80.275390625 450.666992188 57.55859375 c 0
 399.674804688 11.59375 361.333007812 -1.7470703125 276 -3.21875 c 0
 148 -5.4248046875 69.5263671875 47.09375 58.017578125 142.666992188 c 0
 50.310546875 206.666992188 85.0966796875 275.100585938 146.666992188 317.061523438 c 0
 196 350.68359375 313.333007812 359.038085938 362.666992188 332.440429688 c 0
 401.979492188 311.24609375 409.520507812 330.666992188 419.450195312 478.666992188 c 0
 429.022460938 621.333007812 450.640625 744.447265625 470.723632812 770.666992188 c 0
356.724609375 237.333007812 m 0
 334.795898438 264.595703125 195.690429688 258.666992188 169.041992188 229.333007812 c 0
 134.521484375 191.333007812 140 127.301757812 180 101.26953125 c 0
 217.182617188 77.0712890625 322.666992188 73.435546875 362.666992188 94.974609375 c 0
 385.15625 107.083984375 387.87109375 118 380 164.666992188 c 0
 374.827148438 195.333007812 364.451171875 227.7265625 356.724609375 237.333007812 c 0
EndSplineSet
Validated: 33
EndChar

StartChar: e
Encoding: 101 101 36
Width: 600
VWidth: 0
Flags: HW
LayerCount: 2
Back
Fore
SplineSet
292 460.89453125 m 0
 358.666992188 496.270507812 414.771484375 495.176757812 456 457.697265625 c 0
 489.159179688 427.551757812 487.671875 346.666992188 453.1484375 302.666992188 c 0
 417.8984375 257.739257812 326.666992188 205.422851562 249.333007812 185.7890625 c 0
 176 167.170898438 166 133.671875 222.666992188 96.4580078125 c 0
 276.444335938 61.140625 348 67.17578125 406.666992188 111.975585938 c 0
 444 140.484375 462.596679688 147.307617188 477.333007812 137.900390625 c 0
 510.633789062 116.64453125 508.799804688 98.6669921875 468.977539062 56 c 0
 424.341796875 8.17578125 336 -19.474609375 268 -6.9033203125 c 0
 27.7333984375 37.51171875 42.6669921875 328.5859375 292 460.89453125 c 0
400 381.333007812 m 0
 400 407.173828125 362.666992188 404.1953125 305.333007812 373.780273438 c 0
 258.666992188 349.024414062 204.616210938 284.716796875 218.666992188 270.666992188 c 0
 241.022460938 248.310546875 400 345.333007812 400 381.333007812 c 0
EndSplineSet
Validated: 33
EndChar

StartChar: f
Encoding: 102 102 37
Width: 600
VWidth: 0
Flags: HW
LayerCount: 2
Back
Fore
SplineSet
301.333007812 770.596679688 m 0
 332.388671875 788.576171875 342.666992188 788.826171875 400 772.995117188 c 0
 463.130859375 755.563476562 541.953125 688 575.379882812 622.666992188 c 0
 600.620117188 573.333007812 601.06640625 567.765625 581.333007812 548.435546875 c 0
 554.520507812 522.169921875 521.021484375 538.666992188 495.57421875 590.666992188 c 0
 474.04296875 634.666992188 398.857421875 693.333007812 364 693.333007812 c 0
 319.5859375 693.333007812 280 584 280 461.333007812 c 2
 280 360 l 1
 332 360 l 2
 412 360 455.7421875 338.876953125 450.728515625 302.666992188 c 0
 447.06640625 276.21875 438.666992188 272.939453125 365.333007812 269.333007812 c 2
 284 265.333007812 l 1
 275.716796875 70.6669921875 l 2
 267.03515625 -133.333007812 255.934570312 -169.73046875 208 -151.35546875 c 0
 189.77734375 -144.370117188 185.987304688 -129.333007812 188.666992188 -74.6669921875 c 0
 190.497070312 -37.3330078125 190.797851562 54.6669921875 189.333007812 129.333007812 c 2
 186.666992188 265.333007812 l 1
 122 258 l 2
 71.3330078125 252.25390625 55.6455078125 254.99609375 49.537109375 270.666992188 c 0
 36.5966796875 303.859375 70.6669921875 334.974609375 128 342.325195312 c 2
 182.666992188 349.333007812 l 1
 191.265625 468 l 2
 200.637695312 597.333007812 253.611328125 742.967773438 301.333007812 770.596679688 c 0
EndSplineSet
Validated: 33
EndChar

StartChar: g
Encoding: 103 103 38
Width: 600
VWidth: 0
Flags: HW
LayerCount: 2
Back
Fore
SplineSet
467 408 m 0
 496 443 541 422 542 375 c 0
 544 269 506 -134 483 -256 c 0
 468 -337 450 -432 445 -469 c 0
 425 -606 348 -675 208 -675 c 0
 149 -675 134 -667 90 -620 c 0
 18 -542 -13 -418 31 -382 c 0
 56 -361 99 -397 99 -440 c 0
 99 -486 138 -567 168 -583 c 0
 201 -601 300 -583 329 -553 c 0
 350 -532 437 -69 437 18 c 2
 437 72 l 1
 351 65 l 2
 271 58 261 62 217 101 c 0
 172 141 171 147 180 207 c 0
 187 251 208 288 246 330 c 0
 297 385 306 390 375 389 c 0
 422 388 457 395 467 408 c 0
433 289 m 0
 424 313 355 318 318 297 c 0
 289 280 255 200 265 173 c 0
 277 144 343 135 375 158 c 0
 411 182 445 259 433 289 c 0
EndSplineSet
Validated: 33
EndChar

StartChar: h
Encoding: 104 104 39
Width: 600
VWidth: 0
Flags: HW
LayerCount: 2
Back
Fore
SplineSet
150 789.619140625 m 0
 172.56640625 804.083984375 179.572265625 803.052734375 196.708984375 782.743164062 c 0
 208.383789062 768.90625 207.811523438 701.76953125 194.46875 519.911132812 c 0
 184.631835938 385.840820312 178.64453125 273.268554688 181.194335938 270.353515625 c 0
 183.796875 267.380859375 215.043945312 280.826171875 252.211914062 300.912109375 c 0
 383.627929688 371.9296875 467.73046875 371.481445312 506.235351562 299.557617188 c 0
 529.686523438 255.751953125 530.254882812 36.5556640625 507.02734375 -5.751953125 c 0
 487.350585938 -41.5927734375 438.369140625 -46.2607421875 437.3828125 -12.3896484375 c 0
 437.0234375 -0.037109375 435.524414062 67.2568359375 434.0703125 136.283203125 c 0
 431.583984375 254.424804688 429.571289062 262.653320312 402.211914062 266.561523438 c 0
 369.55078125 271.227539062 273.451171875 226.030273438 228.318359375 184.776367188 c 0
 185.93359375 146.034179688 159.291992188 92.4775390625 159.291992188 46.017578125 c 0
 159.291992188 -3.09765625 131.588867188 -40.3427734375 99.5576171875 -34.2919921875 c 0
 63.3681640625 -27.4560546875 53.4599609375 48.6728515625 74.4208984375 158.849609375 c 0
 83.8916015625 208.6328125 97.8095703125 347.344726562 105.455078125 468.141601562 c 0
 121.41796875 720.353515625 129.165039062 776.262695312 150 789.619140625 c 0
EndSplineSet
Validated: 33
EndChar

StartChar: i
Encoding: 105 105 40
Width: 600
VWidth: 0
Flags: HW
LayerCount: 2
Back
Fore
SplineSet
275.575195312 377.875976562 m 0
 300.6640625 405.751953125 311.290039062 406.7734375 330.833984375 383.185546875 c 0
 341.40234375 370.430664062 341.497070312 342.03515625 331.194335938 274.3359375 c 0
 323.518554688 223.893554688 313.678710938 142.189453125 309.291992188 92.4775390625 c 0
 303.318359375 24.7783203125 295.353515625 -1.01171875 277.43359375 -10.6826171875 c 0
 235.326171875 -33.4072265625 221.287109375 4.8671875 229.859375 119.026367188 c 0
 242.517578125 287.610351562 254.280273438 354.21484375 275.575195312 377.875976562 c 0
278.548828125 687.16796875 m 0
 297.6640625 709.923828125 315.9296875 712.2578125 342.477539062 695.336914062 c 0
 372.344726562 676.30078125 354.424804688 634.122070312 314.6015625 629.7265625 c 0
 272.124023438 625.037109375 252.551757812 656.219726562 278.548828125 687.16796875 c 0
EndSplineSet
Validated: 33
EndChar

StartChar: j
Encoding: 106 106 41
Width: 600
VWidth: 0
Flags: HW
LayerCount: 2
Back
Fore
SplineSet
255.712890625 435.239257812 m 0
 261.26953125 444.129882812 278.279296875 449.409179688 294.208984375 447.185546875 c 0
 321.903320312 443.321289062 322.697265625 437.893554688 321 264 c 0
 317.283203125 -116.973632812 205.901367188 -373.16796875 43.9873046875 -373.16796875 c 0
 -33.00390625 -373.16796875 -108.666992188 -306.715820312 -108.666992188 -239.096679688 c 0
 -108.666992188 -182.017578125 -51.322265625 -176.41796875 -40.693359375 -232.459960938 c 0
 -37.896484375 -247.208984375 -19.7294921875 -267.977539062 0.1826171875 -279.1875 c 0
 72.7587890625 -320.049804688 149.890625 -253.69921875 190.296875 -115.645507812 c 0
 213.901367188 -34.99609375 220.31640625 17.09765625 234.7578125 245.416015625 c 0
 240.803710938 340.991210938 250.241210938 426.484375 255.712890625 435.239257812 c 0
280.571289062 695.416015625 m 0
 289.71875 719.309570312 351.336914062 722.428710938 359.252929688 699.3984375 c 0
 371.1171875 664.884765625 353.77734375 635.681640625 321.420898438 635.681640625 c 0
 286.908203125 635.681640625 268.185546875 663.059570312 280.571289062 695.416015625 c 0
EndSplineSet
Validated: 33
EndChar

StartChar: k
Encoding: 107 107 42
Width: 600
VWidth: 0
Flags: HW
LayerCount: 2
Back
Fore
SplineSet
178.540039062 772.124023438 m 0
 193.282226562 795.7109375 236.762695312 789.380859375 251.474609375 761.504882812 c 0
 259.21875 746.833007812 262.814453125 712.389648438 259.513671875 684.513671875 c 0
 256.237304688 656.8515625 249.943359375 578.318359375 245.575195312 510.619140625 c 2
 237.610351562 387.16796875 l 1
 280.088867188 409.166015625 l 2
 363.716796875 452.47265625 398.9765625 456.365234375 446.017578125 427.48046875 c 0
 546.971679688 365.491210938 509.734375 187.076171875 382.30078125 122.192382812 c 0
 329.203125 95.1572265625 327.78125 92.888671875 352.43359375 74.5576171875 c 0
 369 62.2392578125 402.211914062 56.7431640625 444.690429688 59.2919921875 c 0
 503.09765625 62.796875 511.529296875 60.0888671875 514.956054688 36.7255859375 c 0
 519.212890625 7.6982421875 459.291992188 -35.8759765625 415.486328125 -35.607421875 c 0
 380.973632812 -35.3955078125 263.296875 20.59765625 241.150390625 47.3447265625 c 0
 216.129882812 77.5654296875 203.24609375 65.9296875 192.647460938 3.5400390625 c 0
 172.643554688 -114.206054688 101.798828125 -90.7080078125 104.598632812 32.7431640625 c 0
 105.471679688 71.2392578125 115.51171875 166.814453125 126.76953125 243.805664062 c 0
 138.0859375 321.194335938 152.124023438 468.141601562 157.96484375 570.353515625 c 0
 163.805664062 672.56640625 173.064453125 763.36328125 178.540039062 772.124023438 c 0
411.504882812 310.840820312 m 0
 411.504882812 341.372070312 405.484375 348.672851562 380.309570312 348.672851562 c 0
 362.840820312 348.672851562 334.513671875 337.174804688 315.9296875 322.541992188 c 0
 278.760742188 293.275390625 215.200195312 181.698242188 228.318359375 168.74609375 c 0
 243.77734375 153.483398438 358.352539062 205.309570312 385.44921875 239.823242188 c 0
 400.077148438 258.454101562 411.504882812 289.6015625 411.504882812 310.840820312 c 0
EndSplineSet
Validated: 33
EndChar

StartChar: l
Encoding: 108 108 43
Width: 600
VWidth: 0
Flags: HW
LayerCount: 2
Back
Fore
SplineSet
186.465820312 766.814453125 m 0
 211.111328125 796.7421875 285.3984375 790.65234375 326.548828125 755.33203125 c 0
 377.106445312 711.936523438 382.911132812 612.83203125 346.245117188 419.026367188 c 0
 314.6015625 251.76953125 294.319335938 65.2568359375 302.939453125 20.796875 c 0
 309.78515625 -14.513671875 327.875976562 -17.388671875 378.318359375 8.8154296875 c 0
 398.23046875 19.1591796875 421.829101562 24.62109375 431.416015625 21.1064453125 c 0
 454.6796875 12.576171875 444.690429688 -38.0869140625 415.486328125 -59.681640625 c 0
 353.09765625 -105.814453125 276.229492188 -93.9384765625 238.264648438 -32.30078125 c 0
 202.752929688 25.353515625 204.510742188 117.69921875 246.099609375 379.203125 c 0
 264.888671875 497.344726562 278.307617188 613.697265625 276.106445312 639.380859375 c 0
 272.692382812 679.203125 265.866210938 687.421875 228.318359375 696.907226562 c 0
 179.203125 709.315429688 162.327148438 737.50390625 186.465820312 766.814453125 c 0
EndSplineSet
Validated: 33
EndChar

StartChar: m
Encoding: 109 109 44
Width: 600
VWidth: 0
Flags: HW
LayerCount: 2
Back
Fore
SplineSet
376.991210938 356.029296875 m 0
 520.513671875 418.725585938 588.66015625 342.03515625 589.94921875 116.372070312 c 0
 590.677734375 -11.0615234375 589.540039062 -16.5380859375 561.504882812 -20.5439453125 c 0
 528.826171875 -25.2119140625 524.427734375 -13.716796875 511.657226562 109.734375 c 0
 498.749023438 234.513671875 480.572265625 282.30078125 446.017578125 282.30078125 c 0
 394.8515625 282.30078125 369.375 238.495117188 352.604492188 121.681640625 c 0
 341.932617188 47.3447265625 330.61328125 10.5537109375 315.9296875 2.4775390625 c 0
 277.25390625 -18.79296875 253.51953125 3.5400390625 245.674804688 68.583984375 c 0
 229.986328125 198.672851562 219.642578125 235.637695312 197.788085938 239.716796875 c 0
 152.135742188 248.23828125 111.956054688 166.814453125 87.1376953125 15.486328125 c 0
 78.4296875 -37.6103515625 47.9189453125 -59.318359375 17.2568359375 -34.2314453125 c 0
 2.8583984375 -22.451171875 -0.4306640625 14.1591796875 2.6552734375 128.318359375 c 2
 6.63671875 275.6640625 l 1
 44.46875 280.309570312 l 2
 65.7490234375 282.922851562 100.884765625 296.142578125 124.778320312 310.525390625 c 0
 179.203125 343.28515625 241.391601562 342.577148438 271.958007812 308.849609375 c 0
 296.017578125 282.30078125 296.017578125 282.30078125 315.9296875 310.176757812 c 0
 326.848632812 325.463867188 354.424804688 346.171875 376.991210938 356.029296875 c 0
EndSplineSet
Validated: 33
EndChar

StartChar: n
Encoding: 110 110 45
Width: 600
VWidth: 0
Flags: HW
LayerCount: 2
Back
Fore
SplineSet
298.672851562 352.94140625 m 0
 345.1328125 378.055664062 365.225585938 380.079101562 396.90234375 362.837890625 c 0
 440.265625 339.235351562 467.84375 279.646484375 479.638671875 184.0703125 c 0
 492.907226562 76.548828125 480.729492188 11.6953125 446.017578125 5.0205078125 c 0
 406.627929688 -2.5546875 395.493164062 22.1240234375 389.784179688 129.646484375 c 0
 383.228515625 253.09765625 368.400390625 288.890625 331.858398438 269.463867188 c 0
 289.46875 246.926757812 266.685546875 201.327148438 236.798828125 79.203125 c 0
 208.536132812 -36.283203125 186.8359375 -64.6669921875 150 -34.3310546875 c 0
 135.581054688 -22.45703125 132.30859375 15.486328125 135.3984375 134.956054688 c 2
 139.380859375 288.938476562 l 1
 184.513671875 290.265625 l 2
 209.734375 291.006835938 236.087890625 300.376953125 244.248046875 311.504882812 c 0
 252.522460938 322.788085938 276.106445312 340.744140625 298.672851562 352.94140625 c 0
EndSplineSet
Validated: 33
EndChar

StartChar: o
Encoding: 111 111 46
Width: 600
VWidth: 0
Flags: HW
LayerCount: 2
Back
Fore
SplineSet
232.30078125 346.607421875 m 0
 247.833007812 355.58203125 299.3359375 360.569335938 356.416015625 358.627929688 c 0
 448.008789062 355.512695312 456.420898438 352.546875 493.805664062 310.176757812 c 0
 530.442382812 268.655273438 532.940429688 259.734375 525.024414062 198.672851562 c 0
 506.440429688 55.3095703125 425.498046875 -23.94140625 293.36328125 -28.1494140625 c 0
 184.513671875 -31.6162109375 79.646484375 45.16015625 79.646484375 128.318359375 c 0
 79.646484375 196.190429688 152.655273438 300.58984375 232.30078125 346.607421875 c 0
423.692382812 250.442382812 m 0
 403.80078125 274.421875 311.947265625 274.030273438 256.194335938 249.727539062 c 0
 216.372070312 232.369140625 172.56640625 170.859375 172.56640625 132.30078125 c 0
 172.56640625 94.89453125 232.30078125 56.63671875 290.708007812 56.63671875 c 0
 335.840820312 56.63671875 355.487304688 64.4169921875 384.576171875 93.8056640625 c 0
 426.62109375 136.283203125 447.85546875 221.314453125 423.692382812 250.442382812 c 0
EndSplineSet
Validated: 33
EndChar

StartChar: p
Encoding: 112 112 47
Width: 600
VWidth: 0
Flags: HW
LayerCount: 2
Back
Fore
SplineSet
205.513671875 343.772460938 m 0
 318.345703125 377.424804688 454.424804688 342.009765625 502.241210938 266.548828125 c 0
 540.93359375 205.487304688 530.790039062 92.376953125 482.947265625 51.4189453125 c 0
 444.413085938 18.4287109375 326.310546875 -20.1767578125 263.920898438 -20.1767578125 c 0
 219.841796875 -20.1767578125 220.232421875 -18.849609375 201.389648438 -232.56640625 c 0
 179.036132812 -486.106445312 151.255859375 -585.284179688 107.283203125 -568.533203125 c 0
 91.224609375 -562.416015625 87.501953125 -547.16796875 92.0185546875 -506.017578125 c 0
 95.3037109375 -476.083984375 108.4453125 -356.017578125 121.221679688 -239.203125 c 2
 144.452148438 -26.814453125 l 1
 116.575195312 -8.484375 l 2
 78.3642578125 16.640625 80.7353515625 52.0615234375 121.885742188 70.859375 c 0
 151.782226562 84.515625 155.071289062 93.318359375 155.071289062 159.690429688 c 0
 155.071289062 200.840820312 149.145507812 244.497070312 141.647460938 258.583984375 c 0
 120.251953125 298.78125 139.141601562 323.977539062 205.513671875 343.772460938 c 0
409.938476562 235.39453125 m 0
 384.172851562 258.004882812 322.328125 271.075195312 279.849609375 262.88671875 c 0
 253.797851562 257.864257812 250.145507812 247.30078125 246 165 c 0
 242.9921875 105.265625 246.501953125 70.80078125 255.956054688 67.2333984375 c 0
 279.255859375 58.44140625 363.478515625 80.32421875 400.646484375 104.828125 c 0
 440.469726562 131.08203125 445.662109375 204.045898438 409.938476562 235.39453125 c 0
EndSplineSet
Validated: 33
EndChar

StartChar: q
Encoding: 113 113 48
Width: 600
VWidth: 0
Flags: HW
LayerCount: 2
Back
Fore
SplineSet
276.315429688 426.3984375 m 0
 313.483398438 446.764648438 432.612304688 444.705078125 462.15625 423.185546875 c 0
 485.033203125 406.521484375 487.069335938 388.221679688 484.05859375 226.274414062 c 0
 482.233398438 128.044921875 475.665039062 -5.4072265625 469.45703125 -70.4072265625 c 0
 463.245117188 -135.451171875 460.26171875 -190.934570312 462.8203125 -193.858398438 c 0
 465.341796875 -196.740234375 488.705078125 -182.904296875 513.92578125 -163.58984375 c 0
 567.0234375 -122.9296875 614.811523438 -117.146484375 614.811523438 -151.379882812 c 0
 614.811523438 -184.56640625 424.32421875 -343.450195312 397.112304688 -332.961914062 c 0
 372.482421875 -323.469726562 369.474609375 -244.30078125 388.194335938 -98.283203125 c 0
 394.491210938 -49.16796875 394.92578125 8.3212890625 389.147460938 27.8232421875 c 0
 383.248046875 47.734375 377.938476562 55.994140625 377.200195312 46.4072265625 c 0
 375.23828125 20.8974609375 294.899414062 -22.619140625 249.766601562 -22.619140625 c 0
 196.669921875 -22.619140625 126.112304688 22.513671875 108.65234375 67.646484375 c 0
 90.1474609375 115.478515625 102.801757812 216.319335938 135.138671875 278.708007812 c 0
 161.969726562 330.478515625 228.743164062 400.33203125 276.315429688 426.3984375 c 0
380.366210938 351.716796875 m 0
 371.998046875 365.315429688 362.598632812 364.1328125 316.138671875 343.635742188 c 0
 243.018554688 311.375976562 190.032226562 221.62890625 190.032226562 130.036132812 c 0
 190.032226562 92.8671875 196.669921875 80.5224609375 223.21875 68.3095703125 c 0
 251.094726562 55.4873046875 260.864257812 57.080078125 284.280273438 78.265625 c 0
 299.290039062 91.8466796875 320.391601562 119.416015625 330 138 c 0
 351.9609375 180.478515625 389.0078125 337.674804688 380.366210938 351.716796875 c 0
EndSplineSet
Validated: 33
EndChar

StartChar: r
Encoding: 114 114 49
Width: 600
VWidth: 0
Flags: HW
LayerCount: 2
Back
Fore
SplineSet
254.203125 394.46875 m 0
 285.6015625 420.719726562 309.291992188 428.318359375 359.734375 428.318359375 c 0
 450 428.318359375 494.682617188 388.850585938 496.489257812 307.522460938 c 0
 497.639648438 255.751953125 494.393554688 248.662109375 467.919921875 245.1328125 c 0
 444.879882812 242.060546875 433.547851562 251.76953125 418.342773438 287.610351562 c 0
 393.563476562 346.017578125 362.8046875 357.944335938 319.911132812 325.774414062 c 0
 285.866210938 300.240234375 262.650390625 217.256835938 244.248046875 55.3095703125 c 0
 235.045898438 -25.6640625 215.904296875 -55.6181640625 181.858398438 -42.3193359375 c 0
 155.430664062 -31.9951171875 146.017578125 6.1943359375 146.017578125 103.09765625 c 0
 146.017578125 146.90234375 140.342773438 217.986328125 133.407226562 261.061523438 c 0
 125.071289062 312.83203125 125.315429688 347.9296875 134.127929688 364.6015625 c 0
 148.16015625 391.150390625 191.607421875 396.798828125 205.604492188 373.893554688 c 0
 210.392578125 366.059570312 230.309570312 374.4921875 254.203125 394.46875 c 0
EndSplineSet
Validated: 33
EndChar

StartChar: s
Encoding: 115 115 50
Width: 600
VWidth: 0
Flags: HW
LayerCount: 2
Back
Fore
SplineSet
230.973632812 449.739257812 m 0
 282.743164062 472.22265625 434.307617188 473.333007812 477.875976562 451.548828125 c 0
 513.716796875 433.627929688 529.25390625 381.466796875 505.751953125 357.96484375 c 0
 496.694335938 348.907226562 474.557617188 351.858398438 436.061523438 367.256835938 c 0
 398.893554688 382.124023438 363.341796875 387.034179688 331.858398438 381.6484375 c 0
 215.043945312 361.666992188 209.91796875 345.966796875 310.619140625 316.604492188 c 0
 489.823242188 264.353515625 534.845703125 59.41796875 382.30078125 -9.673828125 c 0
 309.291992188 -42.7412109375 237.341796875 -42.91015625 173.893554688 -10.1630859375 c 0
 122.124023438 16.5576171875 106.194335938 38.833984375 106.194335938 84.513671875 c 0
 106.194335938 120.022460938 173.543945312 119.026367188 195.993164062 83.185546875 c 0
 217.291992188 49.18359375 325.221679688 46.3076171875 361.061523438 78.7890625 c 0
 419.783203125 132.004882812 376.991210938 203.407226562 268.141601562 233.833984375 c 0
 184.513671875 257.209960938 132.743164062 295.536132812 132.743164062 334.0703125 c 0
 132.743164062 369.588867188 183.185546875 428.986328125 230.973632812 449.739257812 c 0
EndSplineSet
Validated: 33
EndChar

StartChar: t
Encoding: 116 116 51
Width: 600
VWidth: 0
Flags: HW
LayerCount: 2
Back
Fore
SplineSet
232.30078125 450.221679688 m 0
 251.786132812 516.592773438 256.499023438 522.237304688 289.380859375 518.583984375 c 0
 322.03515625 514.956054688 325.221679688 509.291992188 325.221679688 454.8671875 c 2
 325.221679688 395.1328125 l 1
 404.8671875 395.1328125 l 2
 495.1328125 395.1328125 517.69921875 385.840820312 517.69921875 348.672851562 c 0
 517.69921875 313.486328125 477.875976562 295.149414062 420.796875 304.051757812 c 0
 394.248046875 308.192382812 352.950195312 307.96484375 327.875976562 303.540039062 c 0
 283.387695312 295.689453125 282.522460938 294.248046875 267.256835938 202.655273438 c 0
 249.778320312 97.7880859375 261.250976562 56.63671875 307.96484375 56.63671875 c 0
 343.805664062 56.63671875 421.16015625 104.485351562 438.873046875 137.610351562 c 0
 458.51171875 174.3359375 509.487304688 165.486328125 515.336914062 124.3359375 c 0
 524.44921875 60.2373046875 403.540039062 -23.0087890625 301.327148438 -23.0087890625 c 0
 257.522460938 -23.0087890625 233.627929688 -14.380859375 205.751953125 11.5048828125 c 0
 169.418945312 45.2421875 168.733398438 48.6728515625 175.221679688 164.159179688 c 2
 181.858398438 282.30078125 l 1
 144.690429688 282.30078125 l 2
 72.4853515625 282.30078125 90.265625 355.2265625 165.9296875 369.4140625 c 0
 207.334960938 377.177734375 212.815429688 383.849609375 232.30078125 450.221679688 c 0
EndSplineSet
Validated: 33
EndChar

StartChar: u
Encoding: 117 117 52
Width: 600
VWidth: 0
Flags: HW
LayerCount: 2
Back
Fore
SplineSet
132.361328125 342.03515625 m 0
 153.734375 367.256835938 194.446289062 367.256835938 204.012695312 342.03515625 c 0
 207.89453125 331.80078125 207.615234375 282.30078125 203.389648438 231.858398438 c 0
 193.270507812 111.061523438 203.65234375 69.9111328125 244.248046875 69.9111328125 c 0
 260.6875 69.9111328125 290.708007812 82.4150390625 309.291992188 97.0029296875 c 0
 348.466796875 127.752929688 398.23046875 229.203125 398.23046875 278.318359375 c 0
 398.23046875 324.778320312 421.829101562 361.947265625 451.327148438 361.947265625 c 0
 489.538085938 361.947265625 504.197265625 322.124023438 503.61328125 219.911132812 c 0
 503.33203125 170.796875 504.913085938 108.465820312 507.080078125 83.185546875 c 0
 510.37890625 44.6904296875 506.168945312 36.04296875 482.522460938 32.7431640625 c 0
 465.265625 30.3359375 446.373046875 39.51953125 434.734375 55.9736328125 c 0
 415.82421875 82.7080078125 414.858398438 82.5224609375 379.646484375 45.353515625 c 0
 360.34765625 24.9833984375 319.911132812 -0.3017578125 292.03515625 -9.4287109375 c 0
 226.991210938 -30.7265625 172.53125 -11.9951171875 130.834960938 46.017578125 c 0
 105.428710938 81.3662109375 102.958007812 99.115234375 108.849609375 203.982421875 c 0
 112.50390625 269.026367188 123.0703125 331.073242188 132.361328125 342.03515625 c 0
EndSplineSet
Validated: 33
EndChar

StartChar: v
Encoding: 118 118 53
Width: 600
VWidth: 0
Flags: HW
LayerCount: 2
Back
Fore
SplineSet
422.819335938 284.956054688 m 0
 444.848632812 339.380859375 460.985351562 361.947265625 477.875976562 361.947265625 c 0
 563.303710938 361.947265625 518.797851562 214.6015625 394.4765625 85.8408203125 c 0
 318.858398438 7.5224609375 270.01953125 -23.0087890625 220.353515625 -23.0087890625 c 0
 177.256835938 -23.0087890625 173.215820312 -15.0439453125 130.756835938 153.540039062 c 0
 92.6455078125 304.8671875 93.201171875 335.3984375 134.0703125 335.3984375 c 0
 169.854492188 335.3984375 194.727539062 290.265625 219.662109375 180.088867188 c 0
 232.880859375 121.681640625 248.448242188 83.185546875 258.849609375 83.185546875 c 0
 290.25390625 83.185546875 391.65625 207.96484375 422.819335938 284.956054688 c 0
EndSplineSet
Validated: 33
EndChar

StartChar: w
Encoding: 119 119 54
Width: 600
VWidth: 0
Flags: HW
LayerCount: 2
Back
Fore
SplineSet
281.416015625 342.03515625 m 0
 292.443359375 365.9296875 305.717773438 375.323242188 324.557617188 372.56640625 c 0
 349.653320312 368.893554688 351.860351562 359.291992188 352.935546875 249.115234375 c 0
 354.4375 95.1328125 354.1015625 96.4599609375 391.592773438 96.4599609375 c 0
 430.30078125 96.4599609375 473.451171875 157.522460938 485.3984375 229.203125 c 0
 497.56640625 302.211914062 515.541992188 335.3984375 542.919921875 335.3984375 c 0
 556.194335938 335.3984375 572.241210938 324.708984375 576.796875 312.83203125 c 0
 592.071289062 273.008789062 569.262695312 25.4580078125 547.076171875 -9.734375 c 2
 526.991210938 -41.5927734375 l 1
 496.459960938 -5.751953125 l 2
 479.498046875 14.1591796875 462.389648438 24.1884765625 457.96484375 16.814453125 c 0
 453.637695312 9.603515625 425.442382812 3.5400390625 396.239257812 3.5400390625 c 0
 353.760742188 3.5400390625 334.676757812 11.8974609375 305.309570312 43.36328125 c 2
 268.141601562 83.185546875 l 1
 240.388671875 44.6904296875 l 2
 188.711914062 -26.9912109375 96.451171875 -39.814453125 39.8232421875 16.814453125 c 0
 18.296875 38.33984375 13.2744140625 61.947265625 13.2744140625 141.592773438 c 0
 13.2744140625 259.734375 28.8662109375 308.849609375 66.3720703125 308.849609375 c 0
 97.5595703125 308.849609375 98.1337890625 306.194335938 93.671875 182.743164062 c 0
 91.0810546875 111.061523438 95.1923828125 84.36328125 110.840820312 71.2392578125 c 0
 128.250976562 56.63671875 136.672851562 59.2919921875 165.587890625 88.4951171875 c 0
 202.387695312 125.6640625 264.833984375 248.778320312 265.236328125 284.956054688 c 0
 265.37109375 297.106445312 272.838867188 323.451171875 281.416015625 342.03515625 c 0
EndSplineSet
Validated: 33
EndChar

StartChar: x
Encoding: 120 120 55
Width: 600
VWidth: 0
Flags: HW
LayerCount: 2
Back
Fore
SplineSet
35.8408203125 334.107421875 m 0
 66.7841796875 352.033203125 192.477539062 352.903320312 225.6640625 335.421875 c 0
 257.830078125 318.477539062 281.583007812 275.6640625 291.223632812 217.256835938 c 2
 298.672851562 172.124023438 l 1
 355.751953125 253.760742188 l 2
 399.374023438 316.150390625 420.65625 335.3984375 446.017578125 335.3984375 c 0
 494.252929688 335.3984375 498.255859375 302.211914062 459.307617188 225.221679688 c 0
 417.001953125 141.592773438 415.166015625 102.118164062 452.655273438 82.1240234375 c 0
 475.682617188 69.841796875 485.840820312 72.251953125 511.061523438 95.982421875 c 0
 572.716796875 153.9921875 626.682617188 96.4599609375 572.872070312 30.0888671875 c 0
 536.291992188 -15.0302734375 431.416015625 -16.150390625 371.681640625 27.939453125 c 2
 329.203125 59.2919921875 l 1
 253.540039062 -15.7080078125 l 2
 197.788085938 -70.970703125 171.587890625 -88.3037109375 153.982421875 -81.572265625 c 0
 125.25390625 -70.587890625 133.360351562 -5.751953125 168.275390625 32.7431640625 c 0
 183.857421875 49.9228515625 192.84375 87.16796875 196.459960938 149.557617188 c 0
 201.461914062 235.840820312 199.884765625 242.03515625 169.248046875 256.416015625 c 0
 143.020507812 268.7265625 128.760742188 267.5703125 95.5751953125 250.442382812 c 0
 73.0087890625 238.794921875 44.8330078125 232.93359375 33.185546875 237.462890625 c 0
 4.7509765625 248.521484375 6.63671875 317.189453125 35.8408203125 334.107421875 c 0
EndSplineSet
Validated: 33
EndChar

StartChar: y
Encoding: 121 121 56
Width: 600
VWidth: 0
Flags: HW
LayerCount: 2
Back
Fore
SplineSet
443.458007812 450.442382812 m 0
 465.1796875 472.1640625 500.2265625 470.354492188 520.561523438 446.4609375 c 0
 532.911132812 431.950195312 532.013671875 406.637695312 516.466796875 330.973632812 c 0
 505.456054688 277.392578125 486.466796875 183.62890625 473.98828125 121.239257812 c 0
 461.510742188 58.849609375 446.674804688 2.47265625 440.802734375 -4.8671875 c 0
 435.038085938 -12.0732421875 425.935546875 -39.3798828125 420.891601562 -64.6015625 c 0
 415.799804688 -90.05859375 382.662109375 -198.671875 347.5859375 -304.8671875 c 0
 235.34375 -644.689453125 200.514648438 -692.801757812 71.7763671875 -685.864257812 c 0
 4.0771484375 -682.215820312 -5.345703125 -677.76953125 -33.7548828125 -636.061523438 c 0
 -54.84375 -605.100585938 -63.6591796875 -575 -60.966796875 -543.141601562 c 0
 -57.6015625 -503.318359375 -51.84375 -496.017578125 -23.798828125 -496.017578125 c 0
 5.0205078125 -496.017578125 9.939453125 -502.654296875 13.58984375 -546.459960938 c 0
 22.24609375 -650.327148438 130.646484375 -639.379882812 184.470703125 -529.203125 c 0
 223.380859375 -449.557617188 344.5703125 -72.9091796875 354.462890625 -0.884765625 c 2
 362.484375 57.5224609375 l 1
 317.3515625 29.564453125 l 2
 257.6171875 -7.439453125 184.490234375 -7.404296875 147.439453125 29.646484375 c 0
 120.380859375 56.705078125 118.918945312 67.478515625 127.528320312 176.328125 c 0
 135.5078125 277.212890625 133.9140625 293.805664062 116.245117188 293.805664062 c 0
 103.334960938 293.805664062 95.669921875 306.416015625 95.669921875 327.655273438 c 0
 95.669921875 353.540039062 106.2890625 366.004882812 140.802734375 380.62890625 c 0
 227.34375 417.298828125 246.641601562 388.053710938 227 250 c 0
 205.658203125 100 205.57421875 101.3671875 236.377929688 96.9140625 c 0
 278.217773438 90.8642578125 352.703125 184.956054688 393.294921875 295.1328125 c 0
 412.368164062 346.903320312 427.528320312 398.340820312 427.528320312 411.283203125 c 0
 427.528320312 424.557617188 434.35546875 441.340820312 443.458007812 450.442382812 c 0
EndSplineSet
Validated: 33
EndChar

StartChar: z
Encoding: 122 122 57
Width: 600
VWidth: 0
Flags: HW
LayerCount: 2
Back
Fore
SplineSet
165.9296875 420.353515625 m 0
 195.389648438 449.814453125 282.743164062 447.009765625 346.459960938 414.557617188 c 0
 421.314453125 376.43359375 416.66015625 340.708007812 319.19921875 205.309570312 c 0
 275.247070312 144.248046875 238.938476562 84.4970703125 238.938476562 73.23046875 c 0
 238.938476562 55.7294921875 256.194335938 53.6904296875 354.424804688 59.583984375 c 0
 488.495117188 67.6279296875 504.424804688 64.35546875 504.424804688 28.7607421875 c 0
 504.424804688 -8.2177734375 453.982421875 -22.6640625 327.875976562 -21.8037109375 c 0
 164.6015625 -20.689453125 113.783203125 -8.99609375 108.119140625 28.7607421875 c 0
 105.53125 46.017578125 114.793945312 71.7001953125 129.424804688 87.83203125 c 0
 143.852539062 103.739257812 176.755859375 152.211914062 203.760742188 197.344726562 c 0
 230.766601562 242.477539062 261.025390625 285.733398438 272.124023438 295.069335938 c 0
 308.783203125 325.909179688 294.690429688 348.672851562 238.938476562 348.672851562 c 0
 209.734375 348.672851562 177.91015625 357.930664062 165.9296875 369.911132812 c 0
 140.708007812 395.1328125 140.708007812 395.1328125 165.9296875 420.353515625 c 0
EndSplineSet
Validated: 33
EndChar

StartChar: braceleft
Encoding: 123 123 58
Width: 600
VWidth: 0
Flags: HW
LayerCount: 2
Back
Fore
SplineSet
305.309570312 750.598632812 m 0
 357.216796875 776.759765625 398.23046875 771.634765625 453.982421875 732.021484375 c 0
 491.150390625 705.612304688 502.43359375 662.827148438 476.548828125 646.451171875 c 0
 469.173828125 641.78515625 442.03515625 650.762695312 415.486328125 666.650390625 c 0
 321.78515625 722.723632812 291.397460938 675.221679688 280.01171875 454.8671875 c 0
 275.690429688 371.239257812 264.920898438 289.607421875 256.194335938 274.3359375 c 0
 243.744140625 252.547851562 244.614257812 233.849609375 260.176757812 188.716796875 c 0
 276.171875 142.333007812 277.3046875 115.043945312 265.9375 50 c 0
 237.868164062 -110.619140625 250.756835938 -142.477539062 343.805664062 -142.477539062 c 0
 386.283203125 -142.477539062 397.344726562 -164.6015625 369.026367188 -192.919921875 c 0
 332.786132812 -229.16015625 216.969726562 -187.610351562 184.020507812 -126.548828125 c 0
 170.747070312 -101.950195312 178.643554688 60.619140625 194.3359375 85.8408203125 c 0
 198.453125 92.45703125 198.216796875 117.03515625 193.805664062 140.9296875 c 0
 187.43359375 175.442382812 177.344726562 186.530273438 143.36328125 196.3671875 c 0
 82.30078125 214.04296875 79.9697265625 249.665039062 138.052734375 277.506835938 c 0
 193.490234375 304.080078125 195.344726562 310.176757812 202.513671875 489.380859375 c 0
 208.938476562 650 234.477539062 714.8984375 305.309570312 750.598632812 c 0
EndSplineSet
Validated: 33
EndChar

StartChar: bar
Encoding: 124 124 59
Width: 600
VWidth: 0
Flags: HW
LayerCount: 2
Back
Fore
SplineSet
302.655273438 756.333984375 m 0
 334.8671875 782.330078125 358.407226562 750.884765625 358.407226562 681.858398438 c 0
 358.407226562 615.194335938 308.244140625 -15.0439453125 297.233398438 -86.7255859375 c 0
 292.54296875 -117.256835938 283.614257812 -129.203125 265.486328125 -129.203125 c 0
 232.524414062 -129.203125 224.094726562 -96.017578125 231.431640625 4.8671875 c 0
 234.836914062 51.6796875 247.7421875 235.840820312 260.176757812 415.043945312 c 0
 277.76953125 668.583984375 287.131835938 743.807617188 302.655273438 756.333984375 c 0
EndSplineSet
Validated: 33
EndChar

StartChar: braceright
Encoding: 125 125 60
Width: 600
VWidth: 0
Flags: HW
LayerCount: 2
Back
Fore
SplineSet
167.606445312 740.265625 m 0
 178.560546875 751.416015625 209.0703125 760.176757812 236.947265625 760.176757812 c 0
 275.442382812 760.176757812 295.6015625 751 325.884765625 719.690429688 c 2
 365.043945312 679.203125 l 1
 365.043945312 497.344726562 l 1
 365.043945312 315.486328125 l 1
 430.088867188 308.982421875 l 2
 508.407226562 301.150390625 540.122070312 266.381835938 497.788085938 234.765625 c 0
 484.513671875 224.8515625 461.248046875 215.9296875 448.672851562 215.9296875 c 0
 403.918945312 215.9296875 383.428710938 158.849609375 371.954101562 2.2119140625 c 0
 361.645507812 -138.495117188 358.928710938 -148.59375 321.239257812 -186.283203125 c 0
 290.157226562 -217.364257812 269.46875 -226.106445312 226.991210938 -226.106445312 c 0
 165.9296875 -226.106445312 132.743164062 -205.073242188 132.743164062 -166.372070312 c 0
 132.743164062 -143.77734375 139.380859375 -142.028320312 196.459960938 -149.576171875 c 0
 285.58203125 -161.360351562 293.727539062 -147.788085938 297.909179688 19.46875 c 0
 299.80078125 95.1328125 309.034179688 172.201171875 318.583984375 192.03515625 c 0
 333.64453125 223.314453125 332.124023438 232.522460938 306.63671875 264.380859375 c 0
 278.881835938 299.075195312 277.875 308.849609375 286.326171875 461.504882812 c 0
 296.541015625 646.017578125 286.528320312 683.75390625 228.318359375 680.116210938 c 0
 208.407226562 678.872070312 185.98828125 678.416992188 177.875976562 679.092773438 c 0
 152.655273438 681.194335938 146.3671875 718.647460938 167.606445312 740.265625 c 0
EndSplineSet
Validated: 33
EndChar

StartChar: asciitilde
Encoding: 126 126 61
Width: 600
VWidth: 0
Flags: HW
LayerCount: 2
Back
Fore
SplineSet
139.380859375 455.578125 m 0
 203.155273438 481.543945312 244.5 458.849609375 297.868164062 368.583984375 c 0
 326.907226562 319.46875 340.147460938 308.849609375 372.344726562 308.849609375 c 0
 402.693359375 308.849609375 419.784179688 320.796875 448.3046875 361.947265625 c 0
 489.705078125 421.681640625 513.477539062 435.260742188 538.938476562 413.716796875 c 0
 553.015625 401.8046875 551.482421875 389.823242188 530.615234375 348.672851562 c 0
 470.704101562 230.53125 346.763671875 190.5703125 275.35546875 266.372070312 c 0
 256.939453125 285.920898438 231.751953125 322.124023438 219.942382812 346.017578125 c 0
 193.041992188 400.442382812 168.999023438 400.76171875 120.071289062 347.344726562 c 0
 78.150390625 301.578125 39.8232421875 302.211914062 39.8232421875 348.672851562 c 0
 39.8232421875 377.875976562 95.5751953125 437.743164062 139.380859375 455.578125 c 0
EndSplineSet
Validated: 33
EndChar

StartChar: exclam
Encoding: 33 33 62
Width: 600
VWidth: 0
Flags: HW
LayerCount: 2
Back
Fore
SplineSet
261.504882812 60.619140625 m 0
 279.389648438 78.5048828125 346.017578125 69.9111328125 354.133789062 48.6728515625 c 0
 374.9296875 -5.751953125 307.592773438 -59.8046875 268.141601562 -20.353515625 c 0
 250.884765625 -3.09765625 246.862304688 45.9775390625 261.504882812 60.619140625 c 0
248.893554688 677.211914062 m 0
 252.198242188 686.391601562 268.805664062 693.805664062 286.061523438 693.805664062 c 0
 303.318359375 693.805664062 322.05859375 686.094726562 328.002929688 676.548828125 c 0
 343.193359375 652.157226562 355.178710938 266.372070312 341.612304688 238.495117188 c 0
 317.5859375 189.125976562 236.361328125 235.840820312 256.213867188 287.610351562 c 0
 259.869140625 297.140625 258.374023438 384.513671875 252.875976562 482.743164062 c 0
 247.377929688 580.973632812 245.594726562 668.048828125 248.893554688 677.211914062 c 0
EndSplineSet
Validated: 33
EndChar

StartChar: quotedbl
Encoding: 34 34 63
Width: 600
VWidth: 0
Flags: HW
LayerCount: 2
Back
Fore
SplineSet
333.993164062 689.823242188 m 0
 353.26171875 713.185546875 383.959960938 708.407226562 402.211914062 679.203125 c 0
 411.662109375 664.083984375 408.219726562 635.3984375 390.265625 579.646484375 c 0
 370.6015625 518.583984375 358.462890625 500.450195312 335.176757812 497.344726562 c 0
 316.592773438 494.8671875 302.0234375 501.887695312 296.609375 515.9296875 c 0
 286.374023438 542.477539062 312.428710938 663.676757812 333.993164062 689.823242188 c 0
203.09765625 709.80859375 m 0
 221.681640625 721.681640625 221.681640625 721.681640625 244.248046875 712.83203125 c 0
 268.786132812 703.208984375 272.124023438 632.743164062 251.5625 558.407226562 c 0
 240.547851562 518.583984375 230.903320312 507.96484375 205.751953125 507.96484375 c 0
 187.16796875 507.96484375 170.77734375 517.919921875 166.4140625 531.858398438 c 0
 156.025390625 565.043945312 183.25390625 697.130859375 203.09765625 709.80859375 c 0
EndSplineSet
Validated: 33
EndChar

StartChar: numbersign
Encoding: 35 35 64
Width: 600
VWidth: 0
Flags: HW
LayerCount: 2
Back
Fore
SplineSet
215.043945312 689.823242188 m 0
 234.661132812 713.36328125 274.517578125 711.061523438 284.02734375 685.840820312 c 0
 288.4453125 674.123046875 292.03515625 647.344726562 292.03515625 626.106445312 c 0
 292.03515625 598.23046875 298.626953125 587.610351562 315.9296875 587.610351562 c 0
 332.919921875 587.610351562 344.424804688 604.8671875 355.751953125 647.344726562 c 0
 368.849609375 696.459960938 377.344726562 707.080078125 403.540039062 707.080078125 c 0
 441.337890625 707.080078125 454.1328125 681.858398438 443.272460938 628.760742188 c 0
 437.02734375 598.23046875 441.166015625 587.149414062 463.274414062 575.206054688 c 0
 504.711914062 552.8203125 499.115234375 508.518554688 452.655273438 491.146484375 c 0
 412.65625 476.190429688 398.23046875 441.592773438 398.23046875 360.619140625 c 0
 398.23046875 325.084960938 402.211914062 322.124023438 450 322.124023438 c 0
 493.805664062 322.124023438 544.248046875 297.2578125 544.248046875 275.6640625 c 0
 544.248046875 240.328125 521.681640625 229.203125 450 229.203125 c 2
 371.681640625 229.203125 l 1
 371.681640625 174.778320312 l 2
 371.681640625 108.407226562 352.190429688 69.9111328125 318.583984375 69.9111328125 c 0
 283.452148438 69.9111328125 267.631835938 105.751953125 275.809570312 166.814453125 c 0
 282.387695312 215.9296875 281.109375 218.345703125 250.884765625 213.938476562 c 0
 225.3984375 210.221679688 218.321289062 200 215.498046875 162.83203125 c 0
 207.23046875 53.982421875 180.088867188 22.56640625 134.0703125 68.583984375 c 0
 114.487304688 88.16796875 110.481445312 106.416015625 116.150390625 150.221679688 c 0
 121.819335938 194.026367188 118.704101562 209.291992188 102.211914062 218.512695312 c 0
 66.9248046875 238.243164062 73.0087890625 293.595703125 111.504882812 303.05078125 c 0
 147.294921875 311.841796875 152.833007812 323.451171875 166.190429688 417.69921875 c 0
 174.280273438 474.778320312 172.456054688 481.416015625 148.672851562 481.416015625 c 0
 134.0703125 481.416015625 114.37890625 490.973632812 104.913085938 502.655273438 c 0
 81.369140625 531.708984375 104.8671875 566.080078125 153.982421875 574.4296875 c 0
 186.978515625 580.038085938 193.141601562 587.610351562 197.124023438 627.43359375 c 0
 199.646484375 652.655273438 207.837890625 681.17578125 215.043945312 689.823242188 c 0
311.125 419.026367188 m 0
 318.370117188 481.416015625 316.41796875 494.690429688 300 494.690429688 c 0
 272.76953125 494.690429688 267.84765625 484.0703125 254.471679688 396.459960938 c 0
 247.37890625 350 247.53125 318.030273438 254.8671875 313.627929688 c 0
 278.801757812 299.267578125 302.337890625 343.36328125 311.125 419.026367188 c 0
EndSplineSet
Validated: 33
EndChar

StartChar: dollar
Encoding: 36 36 65
Width: 600
VWidth: 0
Flags: HW
LayerCount: 2
Back
Fore
SplineSet
309.291992188 778.556640625 m 0
 348.23046875 794.282226562 365.018554688 778.760742188 372.25 720.353515625 c 0
 379.317382812 663.274414062 380.098632812 662.389648438 389.823242188 700.442382812 c 0
 405.766601562 762.83203125 419.380859375 780.088867188 452.655273438 780.088867188 c 0
 482.0625 780.088867188 484.513671875 774.778320312 484.513671875 711.061523438 c 0
 484.513671875 652.655273438 489.619140625 638.500976562 517.69921875 619.060546875 c 0
 561.504882812 588.733398438 570.796875 574.40234375 570.796875 537.16796875 c 0
 570.796875 515.265625 562.83203125 507.96484375 538.938476562 507.96484375 c 0
 521.681640625 507.96484375 499.25 517.69921875 489.99609375 529.203125 c 0
 464.528320312 560.866210938 452.931640625 535.840820312 433.404296875 407.080078125 c 0
 415.889648438 291.592773438 416.149414062 288.192382812 444.985351562 255.751953125 c 0
 492.182617188 202.655273438 507.465820312 162.452148438 498.474609375 115.043945312 c 0
 489.977539062 70.2431640625 424.778320312 1.7216796875 365.043945312 -25.185546875 c 0
 346.725585938 -33.4365234375 331.337890625 -54.8671875 326.57421875 -78.7607421875 c 0
 309.373046875 -165.043945312 252.211914062 -177.2890625 252.211914062 -94.6904296875 c 0
 252.211914062 -53.5400390625 248.798828125 -48.685546875 222.344726562 -52.2119140625 c 0
 203.760742188 -54.6904296875 190.880859375 -67.2275390625 188.250976562 -85.3984375 c 0
 182.87109375 -122.56640625 151.671875 -147.42578125 123.451171875 -137.028320312 c 0
 107.297851562 -131.077148438 104.119140625 -117.919921875 110.176757812 -82.080078125 c 0
 117.743164062 -37.3115234375 115.486328125 -33.8935546875 65.0439453125 -13.716796875 c 0
 23.8935546875 2.7431640625 12.8427734375 13.7939453125 15.9296875 35.3984375 c 0
 19.2919921875 58.9384765625 29.203125 63.2744140625 79.646484375 63.2744140625 c 2
 139.380859375 63.2744140625 l 1
 169.248046875 182.080078125 l 1
 199.115234375 300.884765625 l 1
 171.239257812 330.751953125 l 2
 146.62109375 357.12890625 143.983398438 372.56640625 148.672851562 462.83203125 c 2
 153.982421875 565.043945312 l 1
 214.380859375 619.46875 l 2
 258.185546875 658.942382812 277.331054688 687.38671875 284.0703125 723.008789062 c 0
 289.09375 749.557617188 300.681640625 775.079101562 309.291992188 778.556640625 c 0
357.743164062 517.919921875 m 0
 363.849609375 548.451171875 363.849609375 574.3359375 357.743164062 574.3359375 c 0
 351.424804688 574.3359375 343.248046875 552.43359375 339.159179688 524.557617188 c 0
 335.083984375 496.774414062 325.853515625 449.557617188 318.267578125 417.69921875 c 0
 301.516601562 347.344726562 301.370117188 335.3984375 317.256835938 335.3984375 c 0
 324.522460938 335.3984375 334.135742188 363.938476562 338.495117188 398.451171875 c 0
 342.85546875 432.96484375 351.567382812 487.040039062 357.743164062 517.919921875 c 0
305.309570312 214.6015625 m 0
 305.309570312 262.026367188 280.322265625 243.805664062 265.26171875 185.3984375 c 0
 257.388671875 154.8671875 245.864257812 110.4296875 239.787109375 87.16796875 c 0
 227.99609375 42.03515625 240.618164062 18.595703125 261.947265625 46.017578125 c 0
 277.250976562 65.6953125 305.309570312 174.778320312 305.309570312 214.6015625 c 0
411.504882812 146.239257812 m 0
 411.504882812 155.53125 405.6640625 162.83203125 398.23046875 162.83203125 c 0
 390.989257812 162.83203125 384.956054688 146.239257812 384.956054688 126.327148438 c 0
 384.956054688 98.451171875 388.09375 94.529296875 398.23046875 109.734375 c 0
 405.309570312 120.353515625 411.504882812 137.389648438 411.504882812 146.239257812 c 0
EndSplineSet
Validated: 33
EndChar

StartChar: percent
Encoding: 37 37 66
Width: 600
VWidth: 0
Flags: HW
LayerCount: 2
Back
Fore
SplineSet
422.124023438 214.98828125 m 0
 465.9296875 247.788085938 465.9296875 247.788085938 501.76953125 222.1875 c 0
 523.672851562 206.541992188 530.973632812 188.052734375 530.973632812 148.23046875 c 0
 530.973632812 44.6904296875 472.41015625 -36.2119140625 411.504882812 -16.810546875 c 0
 319.271484375 12.5703125 325.221679688 142.43359375 422.124023438 214.98828125 c 0
459.291992188 106.416015625 m 0
 464.956054688 127.655273438 461.504882812 136.283203125 447.344726562 136.283203125 c 0
 427.086914062 136.283203125 411.504882812 109.734375 411.504882812 75.2216796875 c 0
 411.504882812 56.63671875 450.801757812 47.423828125 451.135742188 65.9296875 c 0
 451.23828125 71.5927734375 455.043945312 90.486328125 459.291992188 106.416015625 c 0
404.961914062 493.36328125 m 0
 461.662109375 554.424804688 495.770507812 558.631835938 501.830078125 505.309570312 c 0
 504.724609375 479.84375 489.919921875 452.875976562 445.353515625 402.43359375 c 0
 411.984375 364.6640625 357.926757812 280.309570312 324.557617188 213.938476562 c 0
 291.188476562 147.56640625 240.694335938 64.103515625 211.725585938 27.43359375 c 0
 182.36328125 -9.734375 159.291992188 -44.1943359375 159.291992188 -50.884765625 c 0
 159.291992188 -70.67578125 122.655273438 -64.1591796875 114.513671875 -42.919921875 c 0
 104.301757812 -16.28125 122.280273438 28.7607421875 162.727539062 77.8759765625 c 0
 195.5234375 117.69921875 323.048828125 348.825195312 315.9296875 355.537109375 c 0
 313.682617188 357.655273438 300.6640625 361.317382812 286.061523438 363.938476562 c 0
 266.09375 367.522460938 257.977539062 357.96484375 250.5546875 322.124023438 c 0
 232.685546875 235.840820312 143.997070312 200.6875 78.318359375 253.85546875 c 0
 51.01171875 275.961914062 46.8466796875 290.265625 49.1630859375 353.982421875 c 0
 52.9765625 458.849609375 75.615234375 500.515625 131.416015625 505.3671875 c 0
 161.947265625 508.022460938 189.217773438 500.05859375 215.708007812 480.751953125 c 0
 237.63671875 464.76953125 276.76953125 449.291992188 304.646484375 445.575195312 c 0
 349.568359375 439.5859375 359.35546875 444.248046875 404.961914062 493.36328125 c 0
171.991210938 408.407226562 m 0
 145.831054688 440.439453125 120.008789062 430.973632812 117.674804688 388.495117188 c 0
 116.434570312 365.9296875 114.911132812 341.482421875 114.159179688 332.080078125 c 0
 113.416015625 322.788085938 127.43359375 315.486328125 146.017578125 315.486328125 c 0
 172.092773438 315.486328125 180.056640625 323.451171875 183.185546875 352.655273438 c 0
 185.319335938 372.56640625 180.122070312 398.451171875 171.991210938 408.407226562 c 0
EndSplineSet
Validated: 33
EndChar

StartChar: ampersand
Encoding: 38 38 67
Width: 600
VWidth: 0
Flags: HW
LayerCount: 2
Back
Fore
SplineSet
438.052734375 726.991210938 m 0
 447.75390625 752.211914062 459.546875 760.432617188 481.858398438 757.522460938 c 0
 523.763671875 752.056640625 526.674804688 685.840820312 491.137695312 546.459960938 c 0
 449.168945312 381.858398438 432.689453125 348.672851562 392.919921875 348.672851562 c 0
 366.774414062 348.672851562 353.982421875 359.291992188 340.155273438 392.477539062 c 0
 303.650390625 480.088867188 172.56640625 488.39453125 172.56640625 403.09765625 c 0
 172.56640625 352.249023438 187.16796875 343.481445312 285.3984375 335.352539062 c 0
 357.080078125 329.419921875 365.51171875 325.575195312 369.716796875 296.90234375 c 0
 375.73046875 255.901367188 342.477539062 229.203125 285.3984375 229.203125 c 0
 246.782226562 229.203125 238.998046875 221.90234375 199.778320312 148.893554688 c 0
 176.247070312 105.088867188 160.2578125 64.9638671875 164.6015625 60.619140625 c 0
 169.115234375 56.1064453125 189.823242188 53.1943359375 212.389648438 53.8994140625 c 0
 257.638671875 55.3134765625 341.6640625 115.043945312 386.16796875 177.43359375 c 0
 417.416015625 221.239257812 457.913085938 226.50390625 478.065429688 189.380859375 c 0
 492.477539062 162.83203125 492.477539062 162.83203125 420.796875 -139.823242188 c 0
 385.584960938 -288.495117188 360.43359375 -331.145507812 325.221679688 -301.892578125 c 0
 302.83984375 -283.298828125 299.576171875 -246.017578125 317.423828125 -212.83203125 c 0
 331.733398438 -186.224609375 371.681640625 -23.0087890625 371.681640625 8.849609375 c 0
 371.681640625 26.412109375 359.734375 24.115234375 302.655273438 -4.4248046875 c 0
 246.90234375 -32.30078125 222.140625 -37.3974609375 173.893554688 -30.9248046875 c 0
 56.2607421875 -15.14453125 40.1689453125 38.052734375 110.869140625 177.43359375 c 2
 155.309570312 265.043945312 l 1
 117.477539062 306.858398438 l 2
 89.103515625 338.21875 79.646484375 361.947265625 79.646484375 401.76953125 c 0
 79.646484375 473.451171875 96.9599609375 502.313476562 159.291992188 534.536132812 c 0
 225.456054688 568.739257812 248.23046875 568.25390625 321.239257812 531.0859375 c 2
 382.30078125 500 l 1
 403.540039062 574.3359375 l 2
 415.296875 615.486328125 424.778320312 658.450195312 424.778320312 670.575195312 c 0
 424.778320312 682.369140625 430.905273438 708.407226562 438.052734375 726.991210938 c 0
EndSplineSet
Validated: 33
EndChar

StartChar: quotesingle
Encoding: 39 39 68
Width: 600
VWidth: 0
Flags: HW
LayerCount: 2
Fore
SplineSet
282.78125 714.620117188 m 0
 302.049804688 737.982421875 332.748046875 733.204101562 351 704 c 0
 360.450195312 688.880859375 357.0078125 660.1953125 339.053710938 604.443359375 c 0
 319.389648438 543.380859375 307.250976562 525.247070312 283.96484375 522.141601562 c 0
 265.380859375 519.6640625 250.811523438 526.684570312 245.397460938 540.7265625 c 0
 235.162109375 567.274414062 261.216796875 688.473632812 282.78125 714.620117188 c 0
EndSplineSet
Validated: 33
EndChar

StartChar: parenleft
Encoding: 40 40 69
Width: 600
VWidth: 0
Flags: HW
LayerCount: 2
Back
Fore
SplineSet
279.159179688 625.893554688 m 4
 328.274414062 675.008789062 340.12890625 680.884765625 364.115234375 668.002929688 c 4
 400.911132812 648.2421875 398.59765625 633.858398438 349.655273438 578.106445312 c 4
 282.008789062 501.048828125 254.864257812 425.451171875 253.849609375 311.291992188 c 4
 252.834960938 197.1328125 268.944335938 156.201171875 342.875976562 85.0908203125 c 4
 391.991210938 37.8505859375 404.04296875 -4.0302734375 372.080078125 -16.3896484375 c 4
 345.26171875 -26.7587890625 295.013671875 3.3271484375 248.25390625 57.751953125 c 4
 178.500976562 138.94140625 165 178.548828125 165 302 c 4
 165 448.017578125 199.681640625 546.416015625 279.159179688 625.893554688 c 4
EndSplineSet
Validated: 33
EndChar

StartChar: parenright
Encoding: 41 41 70
Width: 600
VWidth: 0
Flags: HW
LayerCount: 2
Back
Fore
SplineSet
242.919921875 631.748046875 m 0
 272.555664062 643.787109375 278.760742188 641.088867188 331.858398438 593.0703125 c 0
 399.143554688 532.221679688 434.272460938 457.522460938 450.538085938 340.708007812 c 0
 464.955078125 237.16796875 448.428710938 150.932617188 396.100585938 56.63671875 c 0
 365.897460938 2.2119140625 297.046875 -49.5576171875 254.8671875 -49.5576171875 c 0
 213.122070312 -49.5576171875 218.518554688 -17.69921875 269.930664062 39.380859375 c 0
 330.918945312 107.092773438 359.162109375 180.088867188 360.837890625 274.3359375 c 0
 362.796875 384.513671875 335.709960938 464.290039062 276.106445312 523.893554688 c 0
 225.6640625 574.3359375 211.87890625 619.13671875 242.919921875 631.748046875 c 0
EndSplineSet
Validated: 33
EndChar

StartChar: sterling
Encoding: 163 163 71
Width: 600
VWidth: 0
Flags: HW
LayerCount: 2
Back
Fore
SplineSet
256.194335938 707.360351562 m 0
 306.63671875 738.2890625 356.283203125 741.131835938 391.592773438 715.114257812 c 0
 426.76953125 689.194335938 404.8671875 651.665039062 347.788085938 640.055664062 c 0
 323.893554688 635.1953125 296.598632812 624.104492188 285.3984375 614.704101562 c 0
 257.2890625 591.112304688 235.877929688 510.619140625 241.116210938 448.23046875 c 0
 245.575195312 395.1328125 245.575195312 395.1328125 302.655273438 395.1328125 c 0
 403.540039062 395.1328125 415.158203125 316.94140625 317.256835938 296.865234375 c 0
 292.03515625 291.693359375 273.587890625 283.510742188 275.442382812 278.318359375 c 0
 277.2578125 273.235351562 278.760742188 233.849609375 278.760742188 191.372070312 c 2
 278.760742188 113.716796875 l 1
 355.088867188 65.265625 l 2
 397.56640625 38.3017578125 438.48046875 16.814453125 447.344726562 16.814453125 c 0
 472.56640625 16.814453125 477.62109375 -21.4267578125 455.309570312 -43.4443359375 c 0
 429.578125 -68.837890625 384.956054688 -60.2470703125 329.203125 -19.166015625 c 0
 298.895507812 3.166015625 271.459960938 10.1767578125 214.380859375 10.1767578125 c 0
 149.3359375 10.1767578125 138.8515625 13.7890625 135.3984375 37.3896484375 c 0
 133.26171875 51.9912109375 144.026367188 75.982421875 158.627929688 89.1591796875 c 0
 180.026367188 108.469726562 185.840820312 130.309570312 185.840820312 191.372070312 c 0
 185.840820312 268.36328125 185.5 269.026367188 146.017578125 269.026367188 c 0
 110.176757812 269.026367188 106.194335938 272.942382812 106.194335938 308.185546875 c 0
 106.194335938 333.407226562 114.462890625 349.943359375 129.424804688 354.646484375 c 0
 148.732421875 360.713867188 152.736328125 379.203125 153.134765625 464.159179688 c 0
 153.702148438 584.956054688 187.802734375 665.426757812 256.194335938 707.360351562 c 0
EndSplineSet
Validated: 33
EndChar

StartChar: yen
Encoding: 165 165 72
Width: 600
VWidth: 0
Flags: HW
LayerCount: 2
Back
Fore
SplineSet
150 710.3984375 m 0
 181.547851562 721.440429688 200.596679688 703.09765625 241.669921875 622.124023438 c 0
 278.703125 549.115234375 284.1796875 543.76171875 297.344726562 567.69921875 c 0
 305.401367188 582.346679688 336.939453125 620.1328125 367.69921875 651.991210938 c 0
 407.430664062 693.141601562 432.224609375 708.431640625 453.982421875 705.200195312 c 0
 501.165039062 698.193359375 500.442382812 649.1953125 452.655273438 615.182617188 c 0
 412.83203125 586.837890625 331.858398438 458.018554688 331.858398438 423.008789062 c 0
 331.858398438 411.423828125 347.124023438 401.431640625 368.36328125 399.115234375 c 0
 397.56640625 395.9296875 404.8671875 388.627929688 404.8671875 362.610351562 c 0
 404.8671875 337.59375 394.911132812 327.484375 361.725585938 318.805664062 c 0
 327.211914062 309.778320312 318.583984375 301.017578125 318.583984375 275 c 0
 318.583984375 249.778320312 325.736328125 242.477539062 350.442382812 242.477539062 c 0
 402.211914062 242.477539062 424.778320312 228.374023438 424.778320312 196.017578125 c 0
 424.778320312 163.91796875 402.211914062 149.557617188 351.76953125 149.557617188 c 0
 322.48828125 149.557617188 321.048828125 144.911132812 316.592773438 36.0615234375 c 0
 313.278320312 -44.9111328125 306.241210938 -80.9013671875 292.03515625 -89.537109375 c 0
 258.630859375 -109.841796875 240.180664062 -77.43359375 230.734375 18.1416015625 c 0
 222.075195312 105.751953125 220.180664062 109.741210938 187.16796875 109.879882812 c 0
 104.8671875 110.225585938 94.5361328125 171.856445312 172.56640625 196.985351562 c 0
 208.407226562 208.52734375 220.088867188 220.291015625 223.672851562 248.451171875 c 0
 228.142578125 283.569335938 226.327148438 284.627929688 175.884765625 276.327148438 c 0
 136.061523438 269.774414062 119.30078125 272.647460938 106.194335938 288.274414062 c 0
 92.03515625 305.15625 93.107421875 313.495117188 112.16796875 334.734375 c 0
 124.61328125 348.6015625 152.655273438 364.4765625 172.56640625 368.927734375 c 0
 240.451171875 384.1015625 241.740234375 400.442382812 185.103515625 527.875976562 c 0
 130.826171875 650 121.151367188 700.301757812 150 710.3984375 c 0
EndSplineSet
Validated: 33
EndChar

StartChar: brokenbar
Encoding: 166 166 73
Width: 600
VWidth: 0
Flags: HW
LayerCount: 2
Back
Fore
SplineSet
241.592773438 372.56640625 m 0
 258.849609375 389.823242188 258.849609375 389.823242188 284.0703125 380.455078125 c 0
 302.100585938 373.7578125 305.309570312 344.690429688 305.309570312 188.052734375 c 2
 305.309570312 3.5400390625 l 1
 265.486328125 3.5400390625 l 1
 225.6640625 3.5400390625 l 1
 225.6640625 180.088867188 l 2
 225.6640625 299.557617188 230.813476562 361.787109375 241.592773438 372.56640625 c 0
265.486328125 733.627929688 m 0
 274.690429688 739.291992188 292.03515625 740.840820312 302.655273438 736.947265625 c 0
 319.21484375 730.875 320.986328125 707.080078125 313.17578125 595.575195312 c 0
 302.669921875 445.575195312 283.201171875 404.229492188 242.543945312 445.575195312 c 0
 222.665039062 465.791015625 221.805664062 481.416015625 234.291992188 595.575195312 c 0
 242.712890625 672.56640625 255.060546875 727.211914062 265.486328125 733.627929688 c 0
EndSplineSet
Validated: 33
EndChar

StartChar: section
Encoding: 167 167 74
Width: 600
VWidth: 0
Flags: HW
LayerCount: 2
Back
Fore
SplineSet
305.309570312 698.322265625 m 0
 316.119140625 702.35546875 346.459960938 704.538085938 371.681640625 703.09765625 c 0
 408.849609375 700.973632812 418.938476562 694.6015625 422.124023438 671.239257812 c 0
 425.5 646.479492188 416.814453125 639.694335938 365.043945312 626.653320312 c 0
 296.017578125 609.264648438 252.211914062 563.185546875 252.211914062 507.96484375 c 0
 252.211914062 480.39453125 268.141601562 460.23046875 321.239257812 420.583984375 c 0
 416.814453125 349.221679688 451.327148438 294.573242188 451.327148438 214.6015625 c 0
 451.327148438 158.849609375 445.8515625 146.48828125 407.522460938 115.708007812 c 2
 363.716796875 80.53125 l 1
 390.736328125 26.1064453125 l 2
 423.02734375 -38.9384765625 434.0703125 -174.3359375 412.389648438 -239.380859375 c 0
 381.416015625 -332.30078125 273.21875 -379.374023438 191.150390625 -335.633789062 c 0
 143.36328125 -310.165039062 124.321289062 -278.333007812 144.690429688 -257.96484375 c 0
 153.413085938 -249.241210938 173.893554688 -253.185546875 204.424804688 -269.46875 c 0
 289.791015625 -314.998046875 357.439453125 -261.947265625 357.896484375 -149.115234375 c 0
 358.21875 -69.46875 335.421875 -2.4990234375 296.017578125 32.662109375 c 0
 189.823242188 127.419921875 185.840820312 133.084960938 185.840820312 189.380859375 c 0
 185.840820312 247.788085938 200.666015625 285.309570312 241.434570312 330.088867188 c 0
 266.814453125 357.96484375 266.814453125 357.96484375 220.353515625 404.424804688 c 0
 167.451171875 457.327148438 157.249023438 519.911132812 190.924804688 584.956054688 c 0
 211.541992188 624.778320312 273.93359375 686.615234375 305.309570312 698.322265625 c 0
355.751953125 279.646484375 m 0
 333.944335938 301.454101562 322.56640625 299.557617188 292.03515625 269.026367188 c 0
 260.176757812 237.16796875 256.109375 169.334960938 285.3984375 158.3515625 c 0
 296.548828125 154.169921875 319.911132812 156.43359375 338.495117188 163.495117188 c 0
 364.641601562 173.431640625 371.681640625 185.3984375 371.681640625 219.911132812 c 0
 371.681640625 243.805664062 364.440429688 270.95703125 355.751953125 279.646484375 c 0
EndSplineSet
Validated: 33
EndChar

StartChar: copyright
Encoding: 169 169 75
Width: 600
VWidth: 0
Flags: HW
LayerCount: 2
Back
Fore
SplineSet
208.525390625 338.052734375 m 0
 235.55859375 366.180664062 256.194335938 375.221679688 293.36328125 375.221679688 c 0
 363.716796875 375.221679688 411.504882812 354.280273438 411.504882812 323.451171875 c 0
 411.504882812 286.283203125 388.938476562 277.1015625 343.805664062 295.907226562 c 0
 269.46875 326.880859375 202.995117188 262.74609375 260.176757812 215.221679688 c 0
 276.76953125 201.430664062 286.725585938 203.594726562 319.911132812 228.204101562 c 0
 362.389648438 259.705078125 398.23046875 257.732421875 398.23046875 223.893554688 c 0
 398.23046875 191.864257812 319.911132812 136.283203125 274.778320312 136.283203125 c 0
 176.548828125 136.283203125 135.309570312 261.875 208.525390625 338.052734375 c 0
185.840820312 533.430664062 m 0
 243.948242188 556.560546875 384.956054688 550.506835938 447.344726562 522.204101562 c 0
 524.625 487.145507812 584.0703125 393.805664062 584.0703125 307.522460938 c 0
 584.0703125 210.619140625 559.298828125 116.461914062 519.11328125 60.619140625 c 0
 489.1875 19.0341796875 465.9296875 4.0283203125 400.884765625 -15.6591796875 c 0
 253.540039062 -60.2587890625 98.783203125 -15.0908203125 53.1181640625 85.8408203125 c 0
 -16.5498046875 239.823242188 55.078125 481.379882812 185.840820312 533.430664062 c 0
438.052734375 444.521484375 m 0
 396.548828125 474.748046875 285.3984375 484.78515625 229.646484375 463.342773438 c 0
 165.3984375 438.631835938 134.15234375 403.09765625 112.473632812 330.088867188 c 0
 58.0810546875 146.90234375 123.974609375 39.5517578125 292.03515625 37.556640625 c 0
 423.513671875 35.99609375 483.049804688 89.8232421875 506.943359375 231.858398438 c 0
 519.89453125 308.849609375 518.624023438 325.583007812 496.459960938 369.911132812 c 0
 482.522460938 397.788085938 456.392578125 431.166015625 438.052734375 444.521484375 c 0
EndSplineSet
Validated: 33
EndChar

StartChar: registered
Encoding: 174 174 76
Width: 600
VWidth: 0
Flags: HW
LayerCount: 2
Back
Fore
SplineSet
234.956054688 358.616210938 m 0
 247.426757812 367.79296875 280.088867188 375.221679688 307.96484375 375.221679688 c 0
 402.211914062 375.221679688 440.951171875 296.984375 382.893554688 223.893554688 c 0
 361.805664062 197.344726562 358.209960938 184.267578125 369.026367188 173.451171875 c 0
 389.905273438 152.572265625 388.938476562 96.4599609375 367.69921875 96.4599609375 c 0
 358.03515625 96.4599609375 337.666015625 111.061523438 321.405273438 129.646484375 c 0
 288.8828125 166.814453125 259.177734375 172.180664062 247.923828125 142.919921875 c 0
 243.814453125 132.236328125 227.655273438 123.008789062 213.052734375 123.008789062 c 0
 189.728515625 123.008789062 185.893554688 130.973632812 186.209960938 178.760742188 c 0
 186.754882812 261.061523438 207.7734375 338.614257812 234.956054688 358.616210938 c 0
337.8828125 296.90234375 m 0
 333.815429688 303.51171875 316.592773438 308.849609375 299.3359375 308.849609375 c 0
 277.240234375 308.849609375 266.440429688 299.557617188 262.30859375 276.991210938 c 0
 255.989257812 242.477539062 277.575195312 224.76953125 310.619140625 237.357421875 c 0
 333.185546875 245.954101562 348.565429688 279.543945312 337.8828125 296.90234375 c 0
172.56640625 503.213867188 m 0
 190.946289062 511.7265625 244.248046875 519.024414062 292.03515625 519.5703125 c 0
 396.90234375 520.768554688 463.072265625 488.318359375 526.83203125 404.424804688 c 0
 588.372070312 323.451171875 605.885742188 256.01171875 585.4375 178.760742188 c 0
 538.69140625 2.1669921875 438.052734375 -52.390625 245.575195312 -5.484375 c 0
 106.194335938 28.482421875 34.5732421875 93.1015625 10.470703125 206.63671875 c 0
 -4.5205078125 277.256835938 -3.421875 284.956054688 32.4482421875 360.619140625 c 0
 68.9482421875 437.610351562 100.708007812 469.931640625 172.56640625 503.213867188 c 0
438.052734375 408.197265625 m 0
 402.430664062 441.703125 384.956054688 447.555664062 307.96484375 451.762695312 c 0
 193.805664062 458.000976562 138.84375 430.653320312 95.4482421875 346.017578125 c 0
 13.8779296875 186.9296875 136.725585938 43.36328125 354.424804688 43.36328125 c 0
 416.814453125 43.36328125 431.005859375 48.697265625 463.907226562 84.513671875 c 0
 499.413085938 123.165039062 530.973632812 200 530.973632812 247.788085938 c 0
 530.973632812 283.249023438 483.185546875 365.745117188 438.052734375 408.197265625 c 0
EndSplineSet
Validated: 33
EndChar

StartChar: degree
Encoding: 176 176 77
Width: 600
VWidth: 0
Flags: HW
LayerCount: 2
Back
Fore
SplineSet
245.575195312 743.516601562 m 0
 271.140625 765.690429688 289.380859375 771.258789062 315.9296875 764.994140625 c 0
 376.760742188 750.641601562 398.23046875 721.681640625 398.23046875 653.982421875 c 0
 398.23046875 539.823242188 302.313476562 499.346679688 225.221679688 580.973632812 c 0
 185.521484375 623.008789062 195.1328125 699.765625 245.575195312 743.516601562 c 0
318.583984375 653.982421875 m 0
 318.583984375 680.53125 304.556640625 689.069335938 288.052734375 672.56640625 c 0
 271.934570312 656.447265625 278.760742188 627.43359375 298.672851562 627.43359375 c 0
 309.624023438 627.43359375 318.583984375 639.380859375 318.583984375 653.982421875 c 0
EndSplineSet
Validated: 33
EndChar

StartChar: quotedblleft
Encoding: 256 8220 78
Width: 600
VWidth: 0
Flags: HW
LayerCount: 2
Fore
SplineSet
333.993164062 689.823242188 m 0
 353.26171875 713.185546875 383.959960938 708.407226562 402.211914062 679.203125 c 0
 411.662109375 664.083984375 408.219726562 635.3984375 390.265625 579.646484375 c 0
 370.6015625 518.583984375 358.462890625 500.450195312 335.176757812 497.344726562 c 0
 316.592773438 494.8671875 302.0234375 501.887695312 296.609375 515.9296875 c 0
 286.374023438 542.477539062 312.428710938 663.676757812 333.993164062 689.823242188 c 0
203.09765625 709.80859375 m 0
 221.681640625 721.681640625 221.681640625 721.681640625 244.248046875 712.83203125 c 0
 268.786132812 703.208984375 272.124023438 632.743164062 251.5625 558.407226562 c 0
 240.547851562 518.583984375 230.903320312 507.96484375 205.751953125 507.96484375 c 0
 187.16796875 507.96484375 170.77734375 517.919921875 166.4140625 531.858398438 c 0
 156.025390625 565.043945312 183.25390625 697.130859375 203.09765625 709.80859375 c 0
EndSplineSet
Validated: 33
EndChar

StartChar: quotedblright
Encoding: 257 8221 79
Width: 600
VWidth: 0
Flags: HW
LayerCount: 2
Fore
SplineSet
333.993164062 689.823242188 m 0
 353.26171875 713.185546875 383.959960938 708.407226562 402.211914062 679.203125 c 0
 411.662109375 664.083984375 408.219726562 635.3984375 390.265625 579.646484375 c 0
 370.6015625 518.583984375 358.462890625 500.450195312 335.176757812 497.344726562 c 0
 316.592773438 494.8671875 302.0234375 501.887695312 296.609375 515.9296875 c 0
 286.374023438 542.477539062 312.428710938 663.676757812 333.993164062 689.823242188 c 0
203.09765625 709.80859375 m 0
 221.681640625 721.681640625 221.681640625 721.681640625 244.248046875 712.83203125 c 0
 268.786132812 703.208984375 272.124023438 632.743164062 251.5625 558.407226562 c 0
 240.547851562 518.583984375 230.903320312 507.96484375 205.751953125 507.96484375 c 0
 187.16796875 507.96484375 170.77734375 517.919921875 166.4140625 531.858398438 c 0
 156.025390625 565.043945312 183.25390625 697.130859375 203.09765625 709.80859375 c 0
EndSplineSet
Validated: 33
EndChar

StartChar: quoteleft
Encoding: 258 8216 80
Width: 600
VWidth: 0
Flags: HW
LayerCount: 2
Fore
SplineSet
282.78125 714.620117188 m 0
 302.049804688 737.982421875 332.748046875 733.204101562 351 704 c 0
 360.450195312 688.880859375 357.0078125 660.1953125 339.053710938 604.443359375 c 0
 319.389648438 543.380859375 307.250976562 525.247070312 283.96484375 522.141601562 c 0
 265.380859375 519.6640625 250.811523438 526.684570312 245.397460938 540.7265625 c 0
 235.162109375 567.274414062 261.216796875 688.473632812 282.78125 714.620117188 c 0
EndSplineSet
Validated: 33
EndChar

StartChar: quoteright
Encoding: 259 8217 81
Width: 600
VWidth: 0
Flags: HW
LayerCount: 2
Fore
SplineSet
282.78125 714.620117188 m 0
 302.049804688 737.982421875 332.748046875 733.204101562 351 704 c 0
 360.450195312 688.880859375 357.0078125 660.1953125 339.053710938 604.443359375 c 0
 319.389648438 543.380859375 307.250976562 525.247070312 283.96484375 522.141601562 c 0
 265.380859375 519.6640625 250.811523438 526.684570312 245.397460938 540.7265625 c 0
 235.162109375 567.274414062 261.216796875 688.473632812 282.78125 714.620117188 c 0
EndSplineSet
Validated: 33
EndChar

StartChar: NameMe.10
Encoding: 260 8482 82
Width: 600
VWidth: 0
Flags: HW
LayerCount: 2
Back
Fore
SplineSet
307.810546875 716.372070312 m 0
 328.53515625 741.126953125 354.192382812 737.610351562 375.6171875 707.080078125 c 0
 392.384765625 683.185546875 395.926757812 682.522460938 411.041015625 700.442382812 c 0
 454.83984375 752.375976562 498.861328125 708.407226562 514.703125 596.90234375 c 0
 520.172851562 558.407226562 516.659179688 545.921875 498.451171875 539.159179688 c 0
 485.176757812 534.228515625 466.403320312 539.348632812 454.646484375 551.106445312 c 0
 437.963867188 567.7890625 429.424804688 568.79296875 409.513671875 556.416015625 c 0
 390.9296875 544.86328125 379.143554688 544.86328125 361.061523438 556.416015625 c 0
 347.788085938 564.896484375 328.318359375 566.666992188 317.256835938 560.3984375 c 0
 306.63671875 554.380859375 288.672851562 554.690429688 278.760742188 561.061523438 c 0
 263.111328125 571.122070312 262.796875 582.96484375 276.76953125 636.061523438 c 0
 285.852539062 670.575195312 299.90234375 706.92578125 307.810546875 716.372070312 c 0
120.234375 726.991210938 m 0
 147.090820312 759.467773438 256.993164062 746.90234375 271.16796875 709.734375 c 0
 275.1875 699.193359375 269.390625 679.203125 258.849609375 667.256835938 c 0
 247.788085938 654.719726562 238.938476562 628.760742188 238.938476562 608.849609375 c 0
 238.938476562 588.938476562 230.088867188 569.616210938 219.026367188 565.375976562 c 0
 191.150390625 554.690429688 159.291992188 584.956054688 159.291992188 622.124023438 c 0
 159.291992188 639.380859375 146.819335938 666.455078125 132.080078125 681.194335938 c 0
 110.840820312 702.43359375 108.240234375 712.486328125 120.234375 726.991210938 c 0
EndSplineSet
Validated: 33
EndChar

StartChar: NameMe.11
Encoding: 261 8594 83
Width: 600
VWidth: 0
Flags: HW
LayerCount: 2
Back
Fore
SplineSet
326.297851562 446.90234375 m 0
 342.657226562 490.138671875 398.7578125 466.814453125 460.390625 391.150390625 c 0
 491.748046875 352.655273438 517.69921875 313.282226562 517.69921875 304.203125 c 0
 517.69921875 295.268554688 495.643554688 263.716796875 469.911132812 235.840820312 c 0
 444.1796875 207.96484375 413.240234375 166.610351562 402.875976562 146.239257812 c 0
 388.018554688 117.03515625 375.454101562 109.357421875 347.788085938 112.57421875 c 0
 301.048828125 118.009765625 294.173828125 154.8671875 330.737304688 203.982421875 c 0
 345.560546875 223.893554688 358.407226562 243.307617188 358.407226562 245.796875 c 0
 358.407226562 248.346679688 294.026367188 250.142578125 215.708007812 249.778320312 c 0
 77.6552734375 249.13671875 72.87109375 250.109375 68.78125 279.646484375 c 0
 63.5869140625 317.161132812 107.522460938 335.3984375 203.09765625 335.3984375 c 0
 241.592773438 335.3984375 293.84765625 338.920898438 321.239257812 343.36328125 c 2
 370.353515625 351.327148438 l 1
 343.805664062 387.16796875 l 2
 328.073242188 408.407226562 320.940429688 432.743164062 326.297851562 446.90234375 c 0
EndSplineSet
Validated: 33
EndChar

StartChar: NameMe.12
Encoding: 262 10132 84
Width: 600
VWidth: 0
Flags: HW
LayerCount: 2
Fore
SplineSet
326.297851562 446.90234375 m 0
 342.657226562 490.138671875 398.7578125 466.814453125 460.390625 391.150390625 c 0
 491.748046875 352.655273438 517.69921875 313.282226562 517.69921875 304.203125 c 0
 517.69921875 295.268554688 495.643554688 263.716796875 469.911132812 235.840820312 c 0
 444.1796875 207.96484375 413.240234375 166.610351562 402.875976562 146.239257812 c 0
 388.018554688 117.03515625 375.454101562 109.357421875 347.788085938 112.57421875 c 0
 301.048828125 118.009765625 294.173828125 154.8671875 330.737304688 203.982421875 c 0
 345.560546875 223.893554688 358.407226562 243.307617188 358.407226562 245.796875 c 0
 358.407226562 248.346679688 294.026367188 250.142578125 215.708007812 249.778320312 c 0
 77.6552734375 249.13671875 72.87109375 250.109375 68.78125 279.646484375 c 0
 63.5869140625 317.161132812 107.522460938 335.3984375 203.09765625 335.3984375 c 0
 241.592773438 335.3984375 293.84765625 338.920898438 321.239257812 343.36328125 c 2
 370.353515625 351.327148438 l 1
 343.805664062 387.16796875 l 2
 328.073242188 408.407226562 320.940429688 432.743164062 326.297851562 446.90234375 c 0
EndSplineSet
Validated: 33
EndChar

StartChar: comma
Encoding: 44 44 86
Width: 600
VWidth: 0
Flags: HW
LayerCount: 2
Back
Fore
SplineSet
286.061523438 98.451171875 m 0
 304.125976562 151.548828125 313.547851562 162.83203125 339.823242188 162.83203125 c 0
 379.646484375 162.83203125 409.3515625 103.09765625 386.032226562 69.9111328125 c 0
 362.794921875 36.84375 334.513671875 -25.6640625 313.958984375 -89.380859375 c 0
 300.256835938 -131.858398438 286.63671875 -150.353515625 266.814453125 -153.403320312 c 0
 229.879882812 -159.0859375 219.46875 -129.203125 238.495117188 -72.1240234375 c 0
 246.90234375 -46.90234375 255.8828125 -13.521484375 258.849609375 3.5400390625 c 0
 261.805664062 20.5361328125 273.869140625 62.6103515625 286.061523438 98.451171875 c 0
EndSplineSet
Validated: 33
EndChar

StartChar: hyphen
Encoding: 45 45 87
Width: 600
VWidth: 0
Flags: MW
HStem: 250 75
LayerCount: 2
Back
Fore
SplineSet
518.02734375 328.499023438 m 0
 542.235351562 352.334960938 599 317.961914062 599 279.465820312 c 0
 599 244.717773438 529.973632812 231.725585938 299 223 c 0
 77.3193359375 214.625 1.6552734375 225.954101562 1.6552734375 267.518554688 c 0
 1.6552734375 280.79296875 8.572265625 296.827148438 16.2568359375 301.368164062 c 0
 24.3017578125 306.122070312 139.044921875 312.977539062 271.788085938 316.633789062 c 0
 404.53125 320.291015625 515.1015625 325.619140625 518.02734375 328.499023438 c 0
EndSplineSet
Validated: 33
EndChar

StartChar: period
Encoding: 46 46 88
Width: 600
VWidth: 0
Flags: HW
LayerCount: 2
Back
Fore
SplineSet
252.211914062 77.2119140625 m 0
 261.061523438 87.9052734375 278.760742188 96.4599609375 292.03515625 96.4599609375 c 0
 325.221679688 96.4599609375 349.165039062 63.30078125 339.001953125 31.416015625 c 0
 326.731445312 -7.080078125 257.13671875 -7.080078125 244.794921875 31.416015625 c 0
 240.11328125 46.017578125 243.451171875 66.6259765625 252.211914062 77.2119140625 c 0
EndSplineSet
Validated: 33
EndChar

StartChar: slash
Encoding: 47 47 89
Width: 600
VWidth: 0
Flags: HW
LayerCount: 2
Back
Fore
SplineSet
299 444 m 0
 398.77734375 647.096679688 414.541015625 671.84375 441.69921875 668.018554688 c 0
 492.125 660.916015625 482.69140625 613.911132812 396.473632812 442.671875 c 0
 351.025390625 352.407226562 291.947265625 225.9765625 264.353515625 159.928710938 c 0
 208.896484375 27.185546875 175.032226562 -19.2744140625 133.734375 -19.2744140625 c 0
 94.2373046875 -19.2744140625 86.025390625 13.9111328125 115.009765625 56.3896484375 c 0
 128.79296875 76.5888671875 150.9765625 121.43359375 163.6015625 154.619140625 c 0
 176.432617188 188.345703125 237.046875 317.893554688 299 444 c 0
EndSplineSet
Validated: 33
EndChar

StartChar: zero
Encoding: 48 48 90
Width: 600
VWidth: 0
Flags: HW
LayerCount: 2
Back
Fore
SplineSet
268.141601562 530.821289062 m 0
 326.548828125 549.618164062 393.678710938 551.27734375 424.778320312 534.690429688 c 0
 438.571289062 527.333984375 471.491210938 482.743164062 497.4296875 436.283203125 c 0
 548.323242188 345.12109375 558.294921875 259.734375 529.982421875 157.522460938 c 0
 510.862304688 88.4951171875 433.263671875 6.3759765625 371.681640625 -10.0029296875 c 0
 314.6015625 -25.18359375 183.801757812 -6.201171875 136.725585938 24.095703125 c 0
 60.013671875 73.4638671875 29.2421875 247.788085938 78.259765625 355.309570312 c 0
 107.307617188 419.026367188 206.948242188 511.125976562 268.141601562 530.821289062 c 0
375.6640625 425.244140625 m 0
 351.76953125 441.907226562 331.443359375 454.286132812 329.203125 453.540039062 c 0
 327.013671875 452.809570312 313.274414062 449.203125 298.672851562 445.526367188 c 0
 210.645507812 423.356445312 146.017578125 330.088867188 146.017578125 225.221679688 c 0
 146.017578125 120.353515625 181.182617188 81.455078125 284.0703125 72.5087890625 c 0
 350.442382812 66.7373046875 363.809570312 69.7529296875 392.919921875 97.0625 c 0
 440.225585938 141.44140625 470.232421875 253.09765625 452.333984375 318.141601562 c 0
 435.532226562 379.203125 429.3984375 387.771484375 375.6640625 425.244140625 c 0
EndSplineSet
Validated: 33
EndChar

StartChar: one
Encoding: 49 49 91
Width: 600
VWidth: 0
Flags: HW
LayerCount: 2
Back
Fore
SplineSet
287.389648438 497.344726562 m 0
 291.463867188 504.012695312 307.30078125 507.532226562 323.23046875 505.309570312 c 0
 350.77734375 501.465820312 351.7109375 496.017578125 350.087890625 348.672851562 c 0
 347.99609375 158.849609375 324.541015625 7.7265625 294.690429688 -8.2646484375 c 0
 279.646484375 -16.32421875 264.159179688 -14.6015625 248.23046875 -3.09765625 c 0
 226.991210938 12.2421875 225.811523438 22.7880859375 237.610351562 91.814453125 c 0
 244.861328125 134.23046875 257.510742188 241.150390625 265.486328125 327.43359375 c 0
 273.462890625 413.716796875 283.401367188 490.819335938 287.389648438 497.344726562 c 0
EndSplineSet
Validated: 33
EndChar

StartChar: two
Encoding: 50 50 92
Width: 600
VWidth: 0
Flags: HW
LayerCount: 2
Back
Fore
SplineSet
191.150390625 506.63671875 m 0
 276.106445312 549.115234375 430.9140625 516.389648438 461.1640625 449.557617188 c 0
 482.240234375 402.995117188 494.46875 300.884765625 485.010742188 250.442382812 c 0
 480.309570312 225.369140625 462.1171875 184.0703125 444.077148438 157.522460938 c 0
 408.762695312 105.549804688 411.504882812 101.233398438 484.513671875 93.849609375 c 0
 513.716796875 90.896484375 525.463867188 81.681640625 528.563476562 59.2919921875 c 0
 533.87109375 20.9619140625 489.823242188 3.2646484375 387.610351562 2.66015625 c 0
 346.459960938 2.4169921875 296.809570312 -6.4990234375 278.760742188 -16.884765625 c 0
 233.627929688 -42.857421875 140.930664062 -42.5595703125 119.005859375 -16.3720703125 c 0
 90.8798828125 17.2236328125 119.46875 46.548828125 200.442382812 67.16015625 c 0
 281.600585938 87.818359375 303.540039062 104.424804688 358.407226562 186.725585938 c 0
 398.23046875 246.459960938 406.17578125 292.919921875 390.190429688 372.56640625 c 0
 373.672851562 454.8671875 225.340820312 456.71484375 177.094726562 375.221679688 c 0
 140.158203125 312.83203125 79.646484375 305.413085938 79.646484375 363.274414062 c 0
 79.646484375 406.037109375 136.725585938 479.424804688 191.150390625 506.63671875 c 0
EndSplineSet
Validated: 33
EndChar

StartChar: three
Encoding: 51 51 93
Width: 600
VWidth: 0
Flags: HW
LayerCount: 2
Back
Fore
SplineSet
285.3984375 595.331054688 m 0
 333.185546875 616.787109375 410.176757812 619.264648438 457.96484375 600.884765625 c 0
 506.481445312 582.224609375 563.331054688 457.522460938 552.973632812 392.477539062 c 0
 548.95703125 367.256835938 535.5625 335.094726562 523.672851562 322.124023438 c 0
 506.150390625 303.008789062 504.6328125 292.919921875 516.084960938 271.681640625 c 0
 548.272460938 211.989257812 525.9296875 107.080078125 466.612304688 39.380859375 c 0
 401.018554688 -35.4814453125 234.956054688 -64.845703125 146.017578125 -17.3095703125 c 0
 120.796875 -3.830078125 90.455078125 11.9267578125 79.646484375 17.15625 c 0
 52.9072265625 30.0947265625 54.4248046875 70.64453125 82.30078125 88.119140625 c 0
 100.818359375 99.7275390625 118.141601562 96.31640625 159.291992188 72.9609375 c 0
 214.26953125 41.7578125 293.36328125 34.7431640625 349.115234375 56.1279296875 c 0
 392.634765625 72.8203125 440.794921875 152.211914062 435.583984375 198.672851562 c 0
 431.5546875 234.6015625 428.760742188 235.876953125 351.76953125 236.939453125 c 0
 241.592773438 238.458984375 238.938476562 239.370117188 238.938476562 275.6640625 c 0
 238.938476562 313.4375 272.124023438 335.3984375 329.203125 335.3984375 c 0
 440.708007812 335.3984375 487.072265625 391.07421875 446.377929688 476.106445312 c 0
 426.994140625 516.610351562 419.46875 521.239257812 373.008789062 521.239257812 c 0
 337.16796875 521.239257812 308.577148438 510.6640625 280.088867188 486.87109375 c 0
 234.956054688 449.178710938 195.1015625 448.540039062 188.118164062 485.3984375 c 0
 182.474609375 515.184570312 232.30078125 571.4921875 285.3984375 595.331054688 c 0
EndSplineSet
Validated: 33
EndChar

StartChar: four
Encoding: 52 52 94
Width: 600
VWidth: 0
Flags: HW
LayerCount: 2
Back
Fore
SplineSet
92.919921875 614.109375 m 0
 118.307617188 629.817382812 145.022460938 614.159179688 153.982421875 578.318359375 c 0
 158.36328125 560.796875 154.48046875 498.672851562 145.353515625 440.265625 c 0
 136.227539062 381.858398438 132.046875 331.083984375 136.061523438 327.43359375 c 0
 140.043945312 323.813476562 166.592773438 326.830078125 194.46875 334.0703125 c 0
 222.344726562 341.311523438 260.9609375 350.362304688 279.424804688 353.982421875 c 0
 309.62890625 359.904296875 315.01953125 369.911132812 329.482421875 446.90234375 c 0
 353.668945312 575.6640625 365.799804688 600.884765625 403.540039062 600.884765625 c 0
 448.008789062 600.884765625 454.627929688 573.008789062 431.275390625 484.0703125 c 0
 399.557617188 363.274414062 399.557617188 363.274414062 500.442382812 359.0703125 c 0
 586.725585938 355.475585938 590.708007812 353.845703125 590.708007812 322.124023438 c 0
 590.708007812 290.708007812 585.3984375 288.30078125 491.150390625 276.991210938 c 0
 436.725585938 270.459960938 387.681640625 258.725585938 382.96484375 251.106445312 c 0
 378.21875 243.440429688 370.607421875 201.327148438 366.049804688 157.522460938 c 0
 352.790039062 30.0888671875 345.25 4.7001953125 315.9296875 -11.2353515625 c 0
 296.017578125 -22.056640625 284.236328125 -20.685546875 268.805664062 -5.751953125 c 0
 250.541992188 11.921875 250.442382812 27.43359375 267.919921875 132.30078125 c 0
 290.708007812 269.026367188 290.708007812 269.026367188 180.53125 236.692382812 c 0
 92.919921875 210.98046875 41.6708984375 209.765625 32.640625 233.185546875 c 0
 20.8681640625 263.716796875 74.513671875 602.720703125 92.919921875 614.109375 c 0
EndSplineSet
Validated: 33
EndChar

StartChar: five
Encoding: 53 53 95
Width: 600
VWidth: 0
Flags: HW
LayerCount: 2
Back
Fore
SplineSet
155.309570312 635.3984375 m 0
 171.049804688 651.138671875 210.3984375 654.475585938 343.141601562 651.327148438 c 0
 497.124023438 647.67578125 511.448242188 645.251953125 515.717773438 622.124023438 c 0
 524.01953125 577.15625 481.858398438 561.061523438 355.751953125 561.061523438 c 0
 292.03515625 561.061523438 237.587890625 556.598632812 234.291992188 551.106445312 c 0
 231.022460938 545.65625 224.112304688 512.610351562 219.026367188 478.09765625 c 2
 209.734375 415.043945312 l 1
 277.43359375 415.043945312 l 2
 363.716796875 415.043945312 414.27734375 389.271484375 464.930664062 319.46875 c 0
 497.49609375 274.592773438 504.424804688 251.76953125 504.424804688 189.380859375 c 0
 504.424804688 58.6435546875 436.725585938 3.5400390625 276.106445312 3.5400390625 c 0
 193.805664062 3.5400390625 171.702148438 8.640625 129.424804688 37.3896484375 c 0
 90.9296875 63.56640625 79.646484375 80.115234375 79.646484375 110.3984375 c 0
 79.646484375 142.256835938 85.0908203125 149.557617188 108.849609375 149.557617188 c 0
 124.778320312 149.557617188 150.723632812 137.520507812 165.9296875 123.075195312 c 0
 201.86328125 88.9375 305.309570312 73.9453125 357.080078125 95.3720703125 c 0
 454.190429688 135.565429688 418.141601562 304.950195312 307.96484375 326.149414062 c 0
 266.814453125 334.067382812 214.568359375 316.48828125 193.42578125 287.610351562 c 0
 184.540039062 275.473632812 163.938476562 268.36328125 145.353515625 271.017578125 c 0
 115.43359375 275.291992188 112.918945312 280.973632812 113.924804688 342.03515625 c 0
 116.065429688 472.124023438 136.436523438 616.525390625 155.309570312 635.3984375 c 0
EndSplineSet
Validated: 33
EndChar

StartChar: six
Encoding: 54 54 96
Width: 600
VWidth: 0
Flags: HW
LayerCount: 2
Back
Fore
SplineSet
345.1328125 599.572265625 m 0
 435.3984375 635.141601562 533.478515625 591.327148438 508.599609375 526.548828125 c 0
 502.004882812 509.376953125 488.495117188 506.834960938 438.052734375 513.274414062 c 0
 376.293945312 521.158203125 375.040039062 520.575195312 313.938476562 455.53125 c 0
 280.26953125 419.690429688 252.211914062 381.375976562 252.211914062 371.239257812 c 0
 252.211914062 359.262695312 273.451171875 349.66796875 311.947265625 344.254882812 c 0
 443.36328125 325.774414062 499.556640625 261.333007812 484.041015625 146.90234375 c 0
 466.401367188 16.814453125 366.77734375 -45.595703125 242.919921875 -4.1474609375 c 0
 142.03515625 29.61328125 115.211914062 65.9296875 108.803710938 177.43359375 c 0
 105.065429688 242.477539062 109.119140625 277.68359375 122.788085938 298.893554688 c 0
 133.35546875 315.291992188 152.02734375 359.291992188 164.19140625 396.459960938 c 0
 187.650390625 468.141601562 282.8828125 575.04296875 345.1328125 599.572265625 c 0
379.646484375 228.333007812 m 0
 349.115234375 253.358398438 236.216796875 262.192382812 215.83203125 241.150390625 c 0
 206.677734375 231.700195312 199.115234375 198.672851562 199.115234375 168.141601562 c 0
 199.115234375 123.008789062 205.436523438 108.287109375 232.30078125 90.853515625 c 0
 273.451171875 64.1494140625 350.453125 63.58203125 372.120117188 89.8232421875 c 0
 399.520507812 123.008789062 404.15234375 208.24609375 379.646484375 228.333007812 c 0
EndSplineSet
Validated: 33
EndChar

StartChar: seven
Encoding: 55 55 97
Width: 600
VWidth: 0
Flags: HW
LayerCount: 2
Back
Fore
SplineSet
311.947265625 521.90234375 m 0
 349.115234375 535.655273438 401.681640625 545.291992188 431.416015625 543.805664062 c 0
 480.53125 541.349609375 484.811523438 538.064453125 488.495117188 500 c 0
 490.729492188 476.916015625 484.319335938 434.956054688 473.893554688 404.424804688 c 2
 455.309570312 350 l 1
 496.459960938 346.017578125 l 2
 529.646484375 342.806640625 538.381835938 335.098632812 541.592773438 306.194335938 c 0
 545.205078125 273.688476562 540.265625 268.99609375 488.495117188 255.751953125 c 0
 456.63671875 247.602539062 424.963867188 239.09765625 416.814453125 236.504882812 c 0
 408.764648438 233.943359375 385.875 185.3984375 365.802734375 128.318359375 c 0
 323.791992188 8.849609375 311.716796875 -9.734375 276.106445312 -9.734375 c 0
 237.012695312 -9.734375 233.836914062 22.1240234375 264.063476562 111.061523438 c 0
 279.403320312 156.194335938 289.038085938 196.360351562 285.3984375 200 c 0
 281.693359375 203.704101562 253.540039062 196.994140625 221.681640625 184.8125 c 0
 152.655273438 158.419921875 140.055664062 158.174804688 115.486328125 182.743164062 c 0
 87.6494140625 210.580078125 103.540039062 254.639648438 144.690429688 263.716796875 c 0
 246.90234375 286.263671875 332.59375 313.330078125 342.215820312 326.106445312 c 0
 362.208984375 352.655273438 388.85546875 428.401367188 380.973632812 436.283203125 c 0
 376.567382812 440.689453125 345.1328125 434.760742188 310.619140625 423.015625 c 0
 230.973632812 395.911132812 88.8955078125 395.1328125 67.056640625 421.681640625 c 0
 55.87109375 435.279296875 55.6875 447.56640625 66.3720703125 467.477539062 c 0
 78.6181640625 490.30078125 94.248046875 494.904296875 163.274414062 496.017578125 c 0
 208.407226562 496.74609375 275.549804688 508.435546875 311.947265625 521.90234375 c 0
EndSplineSet
Validated: 33
EndChar

StartChar: eight
Encoding: 56 56 98
Width: 600
VWidth: 0
Flags: HW
LayerCount: 2
Back
Fore
SplineSet
239.227539062 535.840820312 m 0
 275.247070312 574.54296875 284.0703125 577.669921875 338.495117188 571.017578125 c 0
 371.681640625 566.961914062 421.829101562 548.377929688 451.327148438 529.203125 c 0
 496.459960938 499.8671875 504.424804688 487.721679688 504.424804688 448.23046875 c 0
 504.424804688 400.442382812 478.206054688 334.450195312 443.247070312 294.248046875 c 0
 428.818359375 277.655273438 428.03125 263.716796875 439.646484375 230.53125 c 0
 455.869140625 184.178710938 448.53125 92.4775390625 424.5625 42.03515625 c 0
 400.122070312 -9.3984375 335.840820312 -52.3896484375 272.124023438 -59.916015625 c 0
 219.026367188 -66.1875 209.251953125 -62.349609375 164.6015625 -17.69921875 c 0
 117.375976562 29.52734375 115.841796875 34.0703125 124.7265625 100.442382812 c 0
 135.565429688 181.416015625 154.407226562 213.268554688 225.6640625 271.080078125 c 2
 278.760742188 314.159179688 l 1
 239.290039062 355.309570312 l 2
 179.9453125 417.1796875 179.926757812 472.124023438 239.227539062 535.840820312 c 0
380.973632812 454.8671875 m 0
 364.466796875 454.8671875 338.495117188 458.420898438 321.239257812 463.041015625 c 0
 274.814453125 475.469726562 282.743164062 426.533203125 333.185546875 389.310546875 c 0
 374.3359375 358.944335938 376.206054688 358.7109375 393.01171875 381.858398438 c 0
 420.959960938 420.353515625 415.26953125 454.8671875 380.973632812 454.8671875 c 0
352.931640625 181.416015625 m 0
 342.041015625 238.495117188 321.215820312 240.9765625 268.141601562 191.516601562 c 0
 187.228515625 116.114257812 201.76953125 -6.1318359375 288.052734375 24.1240234375 c 0
 334.862304688 40.537109375 365.594726562 115.043945312 352.931640625 181.416015625 c 0
EndSplineSet
Validated: 33
EndChar

StartChar: nine
Encoding: 57 57 99
Width: 600
VWidth: 0
Flags: HW
LayerCount: 2
Back
Fore
SplineSet
228.318359375 558.8671875 m 0
 264.590820312 581.568359375 290.043945312 585.712890625 376.327148438 582.96484375 c 0
 449.3359375 580.639648438 483.995117188 574.083007812 492.102539062 561.061523438 c 0
 512.82421875 527.78125 505.50390625 469.46875 471.60546875 397.788085938 c 0
 428.91796875 307.522460938 396.90234375 174.96875 396.90234375 88.4951171875 c 0
 396.90234375 36.7255859375 390.431640625 13.6611328125 371.017578125 -3.7607421875 c 0
 346.426757812 -25.830078125 343.805664062 -25.7939453125 318.583984375 -3.044921875 c 0
 287.377929688 25.1015625 285.916015625 72.56640625 312.532226562 193.36328125 c 2
 329.203125 269.026367188 l 1
 290.708007812 269.026367188 l 2
 236.283203125 269.026367188 164.737304688 300.884765625 147.616210938 332.743164062 c 0
 112.303710938 398.451171875 152.655273438 511.513671875 228.318359375 558.8671875 c 0
362.389648438 487.641601562 m 0
 323.893554688 502.243164062 289.750976562 493.733398438 257.522460938 461.504882812 c 0
 208.966796875 412.94921875 219.026367188 369.862304688 280.088867188 364.849609375 c 0
 332.25 360.567382812 353.09765625 377.875976562 370.922851562 440.265625 c 0
 379.646484375 470.796875 377.655273438 481.850585938 362.389648438 487.641601562 c 0
EndSplineSet
Validated: 33
EndChar

StartChar: colon
Encoding: 58 58 100
Width: 600
VWidth: 0
Flags: HW
LayerCount: 2
Back
Fore
SplineSet
257.522460938 184.0703125 m 0
 263.627929688 208.495117188 274.778320312 215.9296875 305.309570312 215.9296875 c 0
 351.3046875 215.9296875 368.583984375 174.778320312 348.23046875 113.716796875 c 0
 338.404296875 84.23828125 327.875976562 76.548828125 297.344726562 76.548828125 c 0
 264.159179688 76.548828125 258.208984375 81.7666015625 254.203125 114.380859375 c 0
 251.595703125 135.619140625 253.05078125 166.185546875 257.522460938 184.0703125 c 0
262.603515625 433.627929688 m 0
 297.42578125 468.608398438 395.48046875 392.477539062 377.153320312 344.690429688 c 0
 366.567382812 317.08984375 342.477539062 316.415039062 292.03515625 342.305664062 c 0
 254.8671875 361.3828125 239.169921875 410.088867188 262.603515625 433.627929688 c 0
EndSplineSet
Validated: 33
EndChar

StartChar: equal
Encoding: 61 61 101
Width: 600
VWidth: 0
Flags: HW
LayerCount: 2
Back
Fore
SplineSet
82.96484375 180.088867188 m 0
 92.1826171875 183.775390625 126.106445312 184.661132812 159.291992188 182.080078125 c 0
 192.288085938 179.513671875 281.416015625 173.716796875 358.407226562 169.129882812 c 0
 501.76953125 160.588867188 530.973632812 150.313476562 530.973632812 108.407226562 c 0
 530.973632812 71.4482421875 491.150390625 56.001953125 430.088867188 69.2763671875 c 0
 401.4921875 75.4931640625 315.9296875 84.7783203125 238.938476562 90.0205078125 c 0
 94.248046875 99.8720703125 66.3720703125 109.489257812 66.3720703125 149.557617188 c 0
 66.3720703125 162.83203125 73.74609375 176.401367188 82.96484375 180.088867188 c 0
63.716796875 400.65234375 m 0
 76.203125 407.880859375 175.221679688 413.9765625 285.3984375 414.298828125 c 0
 497.788085938 414.919921875 538.38671875 404.8671875 528.9921875 353.982421875 c 0
 524.64453125 330.431640625 511.061523438 328.672851562 323.893554688 327.43359375 c 0
 213.716796875 326.704101562 118.071289062 322.818359375 111.504882812 318.805664062 c 0
 104.98828125 314.823242188 86.283203125 316.59765625 70.353515625 322.709960938 c 0
 34.513671875 336.462890625 30.67578125 381.5234375 63.716796875 400.65234375 c 0
EndSplineSet
Validated: 33
EndChar

StartChar: question
Encoding: 63 63 102
Width: 600
VWidth: 0
Flags: HW
LayerCount: 2
Back
Fore
SplineSet
238.938476562 -48.23046875 m 0
 238.938476562 -32.30078125 248.23046875 -23.0087890625 264.159179688 -23.0087890625 c 0
 293.36328125 -23.0087890625 308.849609375 -53.982421875 289.380859375 -73.451171875 c 0
 269.911132812 -92.919921875 238.938476562 -77.43359375 238.938476562 -48.23046875 c 0
226.991210938 723.365234375 m 0
 338.495117188 756 384.424804688 752.331054688 456.63671875 705.01953125 c 0
 491.150390625 682.407226562 532.002929688 644.4140625 545.770507812 622.124023438 c 0
 573.646484375 576.991210938 579.510742188 482.219726562 557.0234375 440.265625 c 0
 540.231445312 408.938476562 451.327148438 361.947265625 408.849609375 361.947265625 c 0
 362.116210938 361.947265625 349.994140625 347.344726562 333.916015625 271.681640625 c 0
 314.169921875 178.760742188 297.806640625 149.557617188 265.486328125 149.557617188 c 0
 227.004882812 149.557617188 221.259765625 177.43359375 238.950195312 278.318359375 c 0
 263.391601562 417.69921875 273.346679688 431.0703125 365.043945312 447.690429688 c 0
 467.256835938 466.216796875 477.875976562 473.638671875 477.875976562 526.548828125 c 0
 477.875976562 581.163085938 403.540039062 653.982421875 347.788085938 653.982421875 c 0
 251.68359375 653.982421875 180.395507812 611.504882812 96.0517578125 503.982421875 c 0
 71.0615234375 472.124023438 39.8232421875 492.03515625 39.8232421875 539.823242188 c 0
 39.8232421875 602.833984375 135.3984375 696.557617188 226.991210938 723.365234375 c 0
EndSplineSet
Validated: 33
EndChar

StartChar: at
Encoding: 64 64 103
Width: 600
VWidth: 0
Flags: HW
LayerCount: 2
Back
Fore
SplineSet
204.424804688 687.37890625 m 0
 270.885742188 727.09375 313.274414062 728.407226562 388.938476562 693.09765625 c 0
 477.607421875 651.717773438 515.973632812 603.540039062 533.193359375 511.947265625 c 0
 562.391601562 356.63671875 525.6640625 289.380859375 386.283203125 242.919921875 c 0
 244.248046875 195.575195312 173.234375 228.528320312 192.713867188 332.743164062 c 0
 220.750976562 482.743164062 343.153320312 529.448242188 387.533203125 407.080078125 c 0
 413.8515625 334.510742188 445.4375 352.655273438 442.9921875 438.938476562 c 0
 439.907226562 547.788085938 429.5078125 571.350585938 371.681640625 600.515625 c 0
 302.655273438 635.329101562 275.774414062 634.190429688 228.318359375 594.443359375 c 0
 149.3359375 528.290039062 114.766601562 249.115234375 171.75 137.610351562 c 0
 211.095703125 60.619140625 280.956054688 11.375 335.840820312 21.9423828125 c 0
 406.194335938 35.4892578125 460.2109375 75.8330078125 469.380859375 121.681640625 c 0
 476.814453125 158.849609375 482.439453125 163.661132812 514.380859375 160.176757812 c 0
 545.180664062 156.817382812 551.541015625 149.557617188 555.0859375 113.716796875 c 0
 561.356445312 50.31640625 541.592773438 24.5556640625 451.327148438 -21.52734375 c 0
 347.788085938 -74.3876953125 283.620117188 -75.6318359375 208.407226562 -26.23828125 c 0
 140.309570312 18.482421875 127.865234375 32.7431640625 83.9599609375 116.372070312 c 0
 51.1064453125 178.951171875 49.5615234375 190.708007812 56.9306640625 322.124023438 c 0
 68.9892578125 537.16796875 105.86328125 628.481445312 204.424804688 687.37890625 c 0
318.583984375 327.43359375 m 0
 318.583984375 355.309570312 295.98828125 364.765625 286.86328125 340.708007812 c 0
 275.786132812 311.504882812 276.76953125 308.849609375 298.672851562 308.849609375 c 0
 309.291992188 308.849609375 318.583984375 317.522460938 318.583984375 327.43359375 c 0
EndSplineSet
Validated: 33
EndChar

StartChar: asterisk
Encoding: 42 42 104
Width: 600
VWidth: 0
Flags: HW
LayerCount: 2
Back
Fore
SplineSet
338.109375 740.265625 m 0
 361.568359375 776.106445312 369.155273438 778.819335938 396.90234375 761.294921875 c 0
 409.881835938 753.09765625 412.884765625 736.947265625 406.858398438 707.743164062 c 0
 399.462890625 671.90234375 403.16015625 664.084960938 432.743164062 653.021484375 c 0
 481.463867188 634.80078125 469.911132812 595.768554688 414.159179688 590.23046875 c 0
 365.888671875 585.435546875 363.791015625 579.646484375 391.077148438 526.548828125 c 0
 404.719726562 500 406.068359375 484.450195312 395.796875 472.124023438 c 0
 375.442382812 447.69921875 362.322265625 450.884765625 330.193359375 488.052734375 c 0
 305.959960938 516.088867188 298.672851562 518.073242188 269.46875 504.594726562 c 0
 230.383789062 486.555664062 208.735351562 509.291992188 220.759765625 555.751953125 c 0
 226.67578125 578.607421875 221.681640625 585.891601562 197.788085938 589.258789062 c 0
 154.327148438 595.383789062 155.309570312 643.206054688 199.115234375 653.869140625 c 0
 226.948242188 660.643554688 231.63671875 668.583984375 228.185546875 703.09765625 c 0
 223.008789062 754.8671875 255.337890625 770.326171875 292.03515625 733.627929688 c 0
 317.256835938 708.407226562 317.256835938 708.407226562 338.109375 740.265625 c 0
EndSplineSet
Validated: 33
EndChar

StartChar: plus
Encoding: 43 43 105
Width: 600
VWidth: 0
Flags: MW
HStem: 250 75<147.292 236.223>
LayerCount: 2
Back
Fore
SplineSet
270.924804688 457.026367188 m 0
 278.473632812 481.181640625 325.315429688 478.265625 334.881835938 453.043945312 c 0
 339.219726562 441.607421875 338.956054688 407.911132812 334.310546875 380.03515625 c 2
 327.875976562 361.947265625 l 1
 370.814453125 328.265625 l 2
 479.6640625 328.265625 494.26171875 252.926757812 386.744140625 246.0546875 c 2
 323.02734375 241.982421875 l 1
 316.0390625 179.592773438 l 2
 308.159179688 109.23828125 289.551757812 81.6005859375 257.982421875 93.361328125 c 0
 242.053710938 99.2958984375 236.744140625 119.858398438 236.744140625 175.610351562 c 2
 236.744140625 249.946289062 l 1
 177.008789062 246.813476562 l 2
 62.849609375 240.825195312 58.376953125 305.576171875 171.69921875 323.669921875 c 0
 240.725585938 334.690429688 242.279296875 335.904296875 254 388 c 0
 260.571289062 417.203125 268.1875 448.265625 270.924804688 457.026367188 c 0
EndSplineSet
EndChar

StartChar: semicolon
Encoding: 59 59 106
Width: 600
VWidth: 0
Flags: HW
LayerCount: 2
Back
Fore
SplineSet
260.176757812 194.690429688 m 0
 264.728515625 206.827148438 284.0703125 215.9296875 305.309570312 215.9296875 c 0
 369.278320312 215.9296875 376.5703125 148.23046875 321.896484375 61.947265625 c 0
 278.998046875 -5.751953125 233.350585938 -36.0048828125 209.734375 -12.3896484375 c 0
 197.481445312 -0.1357421875 200.544921875 15.486328125 223.008789062 55.3095703125 c 0
 238.733398438 83.185546875 252.211914062 122.396484375 252.211914062 140.265625 c 0
 252.211914062 158.849609375 255.716796875 182.796875 260.176757812 194.690429688 c 0
262.603515625 433.627929688 m 0
 297.42578125 468.608398438 395.48046875 392.477539062 377.153320312 344.690429688 c 0
 366.567382812 317.08984375 342.477539062 316.415039062 292.03515625 342.305664062 c 0
 254.8671875 361.3828125 239.169921875 410.088867188 262.603515625 433.627929688 c 0
EndSplineSet
Validated: 33
EndChar

StartChar: less
Encoding: 60 60 107
Width: 600
VWidth: 0
Flags: HW
LayerCount: 2
Back
Fore
SplineSet
283.123046875 366.293945312 m 4
 370.734375 423.012695312 431.5703125 433.295898438 439.559570312 392.735351562 c 4
 442.366210938 378.48828125 408.56640625 351.176757812 336.884765625 309.770507812 c 4
 278.477539062 276.032226562 230.026367188 242.627929688 230.026367188 236.09765625 c 4
 230.026367188 229.481445312 249.2734375 212.009765625 273.16796875 196.938476562 c 4
 297.061523438 181.8671875 330.254882812 154.919921875 347.565429688 136.540039062 c 4
 378.822265625 103.354492188 381.52734375 55.5673828125 352.150390625 55.5673828125 c 4
 334.555664062 55.5673828125 211.442382812 139.69140625 146.397460938 196.158203125 c 4
 99.283203125 237.059570312 105.247070312 278.657226562 161 298 c 4
 180.849609375 304.88671875 235.3359375 335.356445312 283.123046875 366.293945312 c 4
EndSplineSet
Validated: 33
EndChar

StartChar: greater
Encoding: 62 62 108
Width: 600
VWidth: 0
Flags: HW
LayerCount: 2
Back
Fore
SplineSet
193.953125 420.353515625 m 0
 204.27734375 446.90234375 229.646484375 446.737304688 282.743164062 419.776367188 c 0
 342.477539062 389.444335938 464.6015625 283.75390625 464.6015625 262.389648438 c 0
 464.6015625 252.9453125 404.203125 204.56640625 331.194335938 155.53125 c 0
 213.052734375 76.1826171875 195.508789062 68.2080078125 177.875976562 85.8408203125 c 0
 148.586914062 115.129882812 164.6015625 137.1875 265.486328125 206.506835938 c 2
 358.407226562 270.353515625 l 1
 321.90234375 300.884765625 l 2
 301.369140625 318.05859375 266.814453125 341.060546875 242.919921875 353.4609375 c 0
 192.477539062 379.640625 183.1015625 392.44921875 193.953125 420.353515625 c 0
EndSplineSet
Validated: 33
EndChar

StartChar: NameMe.263
Encoding: 263 183 109
Width: 600
VWidth: 0
Flags: HMWO
HStem: 250 75
LayerCount: 2
Fore
SplineSet
247.176757812 316.751953125 m 0
 256.026367188 327.4453125 273.725585938 336 287 336 c 0
 320.186523438 336 344.129882812 302.840820312 333.966796875 270.956054688 c 0
 321.696289062 232.459960938 252.1015625 232.459960938 239.759765625 270.956054688 c 0
 235.078125 285.557617188 238.416015625 306.166015625 247.176757812 316.751953125 c 0
EndSplineSet
EndChar
